<?xml version="1.0" encoding="utf-8"?>
<!-- Generator: Adobe Illustrator 27.5.0, SVG Export Plug-In . SVG Version: 6.00 Build 0)  -->
<svg version="1.1" xmlns="http://www.w3.org/2000/svg" xmlns:xlink="http://www.w3.org/1999/xlink" x="0px" y="0px"
	 viewBox="0 0 500 500" style="enable-background:new 0 0 500 500;" xml:space="preserve">
<g id="BACKGROUND">
	<rect style="fill:#FFFFFF;" width="500" height="500"/>
</g>
<g id="OBJECT">
	<g>
		<path style="fill:#A8B2F4;" d="M423.951,334.143c-10.56-4.769-12.167-16.248-16.529-22.216
			c-4.362-5.969-14.922-9.642-14.922-9.642s10.101-7.805,26.171-5.969c7.555,0.863,13.231,4.264,17.866,7.958
			c-2.384-6.915,0.036-10.9-4.092-17.477c-4.821-7.682-14.233-11.831-19.514-24.588c-5.28-12.757,0-24.204,0-24.204
			s1.607,4.591,8.035,9.183c5.746,4.104,21.942,4.734,31.547,17.116c-4.964-69.875-53.543-108.061-87.155-127.98
			c-28.872-17.109-47.514-52.817-125.518-47.653c-78.004,5.175-95.37,55.217-114.697,93.099
			c-10.699,20.971-34.889,25.611-55.291,40.04c15.101-3.951,24.677,3.336,36.053,5.635c13.634,2.755,15.776-6.858,28.02-6.796
			c12.244,0.062,16.835,4.347,16.835,4.347s-12.244-1.837-16.223,8.571c-3.979,10.407-8.877,14.316-21.121,12.668
			c-12.244-1.648-15.788-0.759-22.281,5.072c-6.492,5.83-21.491,1.545-30.062,3.687c-5.078,1.269-11.981,10.274-16.765,17.403
			c3.865-3.128,9.157-6.584,16.286-9.765c19.896-8.877,45.31,7.361,45.31,7.361s-20.037,4.591-31.669,12.55
			c-11.632,7.959-19.896,0.306-27.855,3.061c-3.986,1.38-7.204,2.778-9.424,3.83c-0.002,0.031-0.005,0.061-0.007,0.092
			c-1.596,24.748,7.757,46.721,23.644,65.555c38.9,46.11,116.979,73.429,169.539,76.697c54.97,3.407,151.444-17.013,197.254-77.865
			c4.055-5.383,7.706-11.088,10.902-17.116C433.709,336.772,428.438,336.169,423.951,334.143z"/>
		
			<ellipse transform="matrix(0.9212 -0.3892 0.3892 0.9212 -58.639 91.4941)" style="fill:#7C84D5;" cx="196.509" cy="190.482" rx="28.861" ry="28.861"/>
		<circle style="fill:#7C84D5;" cx="395.379" cy="161.621" r="10.478"/>
		<path style="fill:#7C84D5;" d="M427.389,353.912c-45.81,60.852-142.284,81.272-197.254,77.865
			c-52.56-3.268-130.639-30.587-169.539-76.697c14.817-16.424,52.699-49.689,122.604-59.041
			c93.978-12.577,159.479,62.041,230.498,58.099C418.475,353.869,423.039,353.805,427.389,353.912z"/>
		<path style="fill:none;stroke:#7C84D5;stroke-miterlimit:10;" d="M122.753,159.95c8.724-26.171-11.938-14.081-19.743,2.601
			c-7.805,16.683-22.498,18.516-22.498,27.93C80.512,199.895,114.029,186.121,122.753,159.95z"/>
		<path style="fill:none;stroke:#7C84D5;stroke-miterlimit:10;" d="M361.967,127.112c0,0-24.335-20.652-34.206-27.31
			c-9.872-6.658-5.51-15.611,17.103-5.28c22.613,10.331,32.255,30.279,29.27,34.424C371.15,133.09,361.967,127.112,361.967,127.112z
			"/>
		<path style="fill:#5661AF;" d="M136.143,188.914c0,0.866-0.702,1.568-1.568,1.568c-0.866,0-1.568-0.702-1.568-1.568
			s0.702-1.568,1.568-1.568C135.441,187.346,136.143,188.048,136.143,188.914z"/>
		<path style="fill:#5661AF;" d="M149.305,191.877c0,0.866-0.702,1.568-1.568,1.568s-1.568-0.702-1.568-1.568
			s0.702-1.568,1.568-1.568S149.305,191.011,149.305,191.877z"/>
		<path style="fill:#5661AF;" d="M193.293,145.036c0,0.866-0.702,1.568-1.568,1.568s-1.568-0.702-1.568-1.568
			s0.702-1.568,1.568-1.568S193.293,144.17,193.293,145.036z"/>
		<path style="fill:#5661AF;" d="M398.515,284.065c0,0.866-0.702,1.568-1.568,1.568s-1.568-0.702-1.568-1.568
			c0-0.866,0.702-1.568,1.568-1.568S398.515,283.199,398.515,284.065z"/>
		<path style="fill:#5661AF;" d="M403.855,279.818c0,0.866-0.702,1.568-1.568,1.568s-1.568-0.702-1.568-1.568
			c0-0.866,0.702-1.568,1.568-1.568S403.855,278.952,403.855,279.818z"/>
		<circle style="fill:#5661AF;" cx="143.644" cy="183.826" r="2.525"/>
		<circle style="fill:#5661AF;" cx="410.024" cy="200.937" r="2.525"/>
		<path style="fill:none;stroke:#FFFFFF;stroke-miterlimit:10;" d="M141.119,276.872c0,1.807-1.465,3.272-3.272,3.272
			c-1.807,0-3.272-1.465-3.272-3.272c0-1.807,1.465-3.272,3.272-3.272C139.654,273.601,141.119,275.065,141.119,276.872z"/>
		<path style="fill:none;stroke:#FFFFFF;stroke-miterlimit:10;" d="M326.054,137.34c0,1.807-1.465,3.272-3.272,3.272
			c-1.807,0-3.272-1.465-3.272-3.272s1.465-3.272,3.272-3.272C324.589,134.068,326.054,135.533,326.054,137.34z"/>
		
			<ellipse transform="matrix(0.9303 -0.3667 0.3667 0.9303 -35.2214 68.3346)" style="fill:none;stroke:#FFFFFF;stroke-miterlimit:10;" cx="162.247" cy="126.87" rx="10.432" ry="10.432"/>
		
			<ellipse transform="matrix(0.9259 -0.3777 0.3777 0.9259 -48.9291 184.1235)" style="fill:none;stroke:#FFFFFF;stroke-miterlimit:10;" cx="444.91" cy="216.794" rx="21.376" ry="21.376"/>
		<circle style="fill:none;stroke:#FFFFFF;stroke-miterlimit:10;" cx="44.09" cy="320.803" r="21.376"/>
	</g>
	<g>
		<path style="fill:#3D2624;" d="M206.147,103.275c0,0-4.503,2.337-4.716,12.198c-0.213,9.861,9.234,14.43,15.191,14.324
			l-0.522-1.538c0,0-10.146-1.119-12.779-9.727c-2.634-8.608,3.105-14.453,3.105-14.453L206.147,103.275z"/>
		<path style="fill:#3D2624;" d="M370.179,275.351c0,0-2.061,15.586-29.4,21.537c-27.339,5.951-55.536-9.635-55.536-9.635
			l4.601-0.456c0,0,15.944,9.241,35.073,8.108c19.129-1.134,29.962-12.752,29.962-12.752L370.179,275.351z"/>
		<path style="fill:#3D2624;" d="M376.919,199.97c1.7-19.27-24.938-39.107-56.677-44.215c-31.739-5.108-29.448-38.959-29.448-38.959
			l-63.41,36.486c0,0-2.927,30.252-24.062,47.255c-21.135,17.003-24.773,57.244-14.855,73.114
			c9.918,15.87,27.488,17.003,54.835,15.303c27.347-1.7,40.023-0.281,70.422,2.267c30.399,2.548,52.074,9.456,70.534-24.23
			C402.718,233.306,376.919,199.97,376.919,199.97z M374.368,198.411c0,0-3.259-9.493-15.728-19.27
			c-12.469-9.777-22.388-15.161-22.388-15.161c38.824,12.186,39.249,34.432,39.249,34.432H374.368z"/>
		<path style="fill:#C56E5D;" d="M205.527,182.798c0,0-8.984,8.104-15.36,25.107c-6.376,17.003-19.837,69.713-19.837,69.713
			l21.76,13.568l21.031-57.493L205.527,182.798z"/>
		<path style="fill:#F7DBC6;" d="M292.229,264.541c-3.31,9.792-2.496,20.505,2.282,29.676l1.168,5.046v0.011l3.203,13.788
			c-21.92,19.027-52.367,25.444-71.094,21.309c-18.738-4.135-23.505-19.466-23.505-19.466l2.893-20.259l-4.96-45.071
			c0,0-3.878-5.924-5.528-19.563c-1.661-13.649,8.838-47.214,8.838-47.214l34.111-13.638l24.876-2.121l41.493,15.759l5.367,13.445
			c-0.193,7.435-5.667,26.558-11.388,44.632C297.275,249.457,294.511,257.803,292.229,264.541z"/>
		<path style="fill:#C56E5D;" d="M264.749,169.256c-3.898,7.1-17.813,16.013-23.432,14.064c-5.619-1.949-1.065-11.973-1.065-11.973
			c0.052-1.423,0.104-2.735,0.143-3.943c0.26-8.016,0.208-11.401,0.208-11.401l24.146-15.981c-0.565,2.917-0.845,6.249-0.942,9.601
			C263.515,159.375,264.749,169.256,264.749,169.256z"/>
		<path style="fill:#AF5448;" d="M264.749,140.023c-0.565,2.917-0.845,6.249-0.942,9.601c-2.767,4.151-7.38,10.374-12.174,13.785
			c-4.95,3.527-9.004,4.06-11.238,3.995c0.26-8.016,0.208-11.401,0.208-11.401L264.749,140.023z"/>
		<path style="fill:#C56E5D;" d="M214.36,131.533c0,0,0.835,19.767,14.756,28.676c13.921,8.909,33.409-9.744,36.75-20.045
			c3.341-10.301,2.227-32.574,2.227-32.574s-18.375-12.25-32.295-12.25c-13.92,0-21.438,6.96-21.438,6.96
			S214.36,121.232,214.36,131.533z"/>
		<path style="fill:#3D2624;" d="M230.225,95.729c0,0-0.414,7.267,12.95,15.758c13.364,8.491,20.61,10.231,20.61,10.231l2.83,15.611
			c0,0-1.944,4.899-2.488,6.68c-0.594,1.944-0.362,8.125-0.362,8.125s11.288-1.673,15.185-12.112c0,0,11.554-8.629,11.971-24.22
			c0.418-15.591-7.656-20.463-7.656-20.463s-2.078-18.653-22.685-21.855c-20.607-3.202-37.033,8.352-37.033,8.352
			s-10.023-1.392-15.452,5.707c-5.429,7.099-1.949,15.73-1.949,15.73s-4.733,4.594-1.949,12.111
			c2.784,7.517,10.162,8.491,10.162,8.491s0.696-12.807,4.455-19.21C222.573,98.263,230.225,95.729,230.225,95.729z"/>
		<path style="fill:#C56E5D;" d="M264.752,124.016c0,0,2.645-6.543,8.074-7.239c5.429-0.696,5.847,8.909,2.088,15.313
			c-3.759,6.403-9.048,5.151-9.048,5.151L264.752,124.016z"/>
		<path style="fill:#3D2624;" d="M262.107,116.742c0,0,3.619,10.894,1.531,19.524c0,0,0.587-0.579,1.354-1.697
			c1.747-2.545,2.474-12.223,3.257-15.541L262.107,116.742z"/>
		<path style="fill:#3D2624;" d="M223.269,82.812c0,0,4.547-6.589,13.178-9.28c8.631-2.691,15.869,0,15.869,0l1.392-0.093
			c0,0-8.074-3.877-17.169-1.103c-9.095,2.774-15.405,9.92-15.405,9.92L223.269,82.812z"/>
		<path style="fill:#3D2624;" d="M283.266,95.34c0,0,4.811,0.928,7.672,6.125c2.861,5.197-0.092,10.473-0.092,10.473l-0.48-0.636
			c0,0,2.302-4.478-0.557-9.373c-2.859-4.895-6.543-4.64-6.543-4.64V95.34z"/>
		<path style="fill:#3D2624;" d="M216.1,120.566c0,0,0.577-1.318,4.695-1.235c4.118,0.082,6.589,2.388,6.589,2.388
			s-1.894-3.541-5.642-4.036C217.994,117.189,216.182,119.99,216.1,120.566z"/>
		<path style="fill:#3D2624;" d="M230.225,95.729c0,0-0.646,7.128,3.53,12.882c4.176,5.754,16.519,5.754,16.519,5.754l0.495,1.107
			c0,0-12.188,0.099-17.107-4.263c-4.919-4.362-5.475-11.657-4.547-15.48H230.225z"/>
		<path style="fill:#3D2624;" d="M238.51,121.022c0,0,0.666-1.522,5.422-1.427c4.756,0.095,7.609,2.758,7.609,2.758
			s-2.188-4.09-6.515-4.661C240.698,117.122,238.605,120.356,238.51,121.022z"/>
		<path style="fill:#913D37;" d="M227.383,139.746c0,0,0.626,0.626,2.993,1.322c2.367,0.696,4.037,0,4.037,0
			s-0.714-1.322-2.55-1.601C230.028,139.189,227.383,139.746,227.383,139.746z"/>
		<path style="fill:#AF5448;" d="M227.383,121.719c0,0,1.315,1.392,1.802,5.011s0,6.473,0,6.473S227.53,123.738,227.383,121.719z"/>
		<path style="fill:#AF5448;" d="M216.622,125.756c0,0,2.019,0.87,4.559,1.148c2.54,0.278,5.673-0.522,5.673-0.522
			s-1.166-3.133-3.863-3.863C218.745,121.371,216.622,125.756,216.622,125.756z"/>
		<path style="fill:#AF5448;" d="M238.51,126.269c0,0,0.419-3.212,4.526-3.915c4.106-0.704,8.979,3.612,8.979,3.612
			S243.939,129.818,238.51,126.269z"/>
		<path style="fill:#3D2624;" d="M221.854,126.87c-2.738-0.046-5.232-1.114-5.232-1.114l-0.522,0.348
			c-0.34,0.227-1.102,0.325-1.102,0.325c0.736,0.321,1.499,0.302,1.965,0.245c0.948,0.542,2.626,1.281,4.775,1.31
			c3.411,0.046,5.116-1.137,5.116-1.137v-0.464C226.854,126.382,224.592,126.916,221.854,126.87z"/>
		<path style="fill:#3D2624;" d="M252.015,125.965c0,0-3.305,1.005-6.727,1.099c-3.423,0.093-6.587-0.913-6.587-0.913l-0.637,0.397
			c-0.415,0.258-1.363,0.402-1.363,0.402c0.934,0.303,1.886,0.244,2.466,0.158c1.209,0.527,3.338,1.225,6.024,1.145
			c4.264-0.127,5.579-1.14,6.505-1.748C251.827,126.418,252.015,125.965,252.015,125.965z"/>
		<path style="fill:#913D37;" d="M227.383,146.057c0,0,0.704,0.325,3.515,0.882c2.811,0.557,9.497-0.882,9.497-0.882
			s-4.934-0.835-6.506-0.742c-1.572,0.093-2.639,0.872-2.639,0.872s-1.438-1.151-2.32-1.151c-0.882,0-2.506,0.51-2.506,0.51
			L227.383,146.057z"/>
		<path style="fill:#AF5448;" d="M228.393,149.033c0,0,1.914,1.299,4.698,1.392c2.784,0.093,5.8-1.067,5.8-1.067
			s-1.676,2.406-5.249,2.777C230.069,152.506,228.393,149.033,228.393,149.033z"/>
		<path style="fill:#743F3D;" d="M194.215,327.177l11.983-25.65c0,0,7.967,8.397,32.312,9.248
			c24.345,0.85,57.169-11.499,57.169-11.499s8.408,21.701,8.408,29.777c0,8.077-48.034,39.958-48.034,39.958l-28.481-2.125
			L194.215,327.177z"/>
		<path style="fill:#C56E5D;" d="M192.85,369.011c0,0-7.869,3.063-10.565,4.319c0,0-11.756,1.204-16.475,2.595
			c-4.719,1.391-5.911,7.718-7.068,14.55c-1.158,6.832-9.96,15.999-12.691,20.755c-2.731,4.756-1.427,10.407-1.05,11.578
			c0.377,1.17-1.18,5.16,0.779,7.63c1.958,2.47,3.099,1.198,4.194,0.587s1.428-2.785,1.428-2.785s3.039-0.592,4.176-1.475
			c1.137-0.883-0.03-0.895,2.779-1.8c2.809-0.905,4.255-1.629,5.822-2.78c1.567-1.151,10.432-16.539,16.082-21.459
			c5.649-4.921,15.82-6.647,15.82-6.647L192.85,369.011z"/>
		<path style="fill:#743F3D;" d="M346.877,396.639c-19.192,4.84-60.87,8.242-98.223,10.454c-38.484,2.281-72.376,3.293-72.376,3.293
			l-5.703-18.101l-5.058-16.048l111.861-22.178c0,0-3.045-23.16,21.325-35.637c0,0,72.544,0.575,90.12,20.978
			C406.388,359.802,387.404,386.443,346.877,396.639z"/>
		<path style="fill:#C56E5D;" d="M237.675,390.276c0,0,7.869,3.063,10.564,4.319c0,0,11.756,1.204,16.475,2.595
			c4.719,1.391,5.911,7.718,7.068,14.55c1.158,6.832,9.96,15.999,12.691,20.755c2.731,4.756,1.427,10.407,1.05,11.578
			c-0.377,1.17,1.18,5.16-0.779,7.63c-1.958,2.47-3.099,1.198-4.194,0.587c-1.095-0.611-1.428-2.785-1.428-2.785
			s-3.039-0.592-4.176-1.475c-1.137-0.883,0.03-0.895-2.779-1.8c-2.809-0.905-4.255-1.629-5.822-2.78
			c-1.567-1.151-10.432-16.539-16.082-21.459c-5.649-4.921-15.82-6.647-15.82-6.647L237.675,390.276z"/>
		<path style="fill:#743F3D;" d="M200.368,322.677c0,0-95.643,0-110.946,17.003c-15.303,17.003-6.801,38.682,5.526,45.909
			c12.327,7.226,141.552,36.132,141.552,36.132l6.801-39.533l-19.065-5.951l10.208-13.668L200.368,322.677z"/>
		<path style="fill:#5E3030;" d="M200.085,326.361c0,0,19.959,24.71,30.808,32.05C230.893,358.411,208.587,356.116,200.085,326.361z
			"/>
		<path style="fill:#5E3030;" d="M123.004,347.757c0,0,16.578,2.125,42.508,7.651c25.93,5.526,58.725,20.829,58.725,20.829
			s-33.643-22.954-59.999-28.48C137.882,342.23,123.004,347.757,123.004,347.757z"/>
		<path style="fill:#5E3030;" d="M215.489,370.659c0,0,77.122-23.017,109.428-28.273c0,0-68.31,20.532-100.68,33.851
			L215.489,370.659z"/>
		<path style="fill:#5E3030;" d="M289.844,324.33c0,0-37.388,18.455-49.971,37.165C239.873,361.495,279.284,341.287,289.844,324.33z
			"/>
		<path style="fill:#C56E5D;" d="M192.09,291.186c0,0-6.35-15.449-21.241-15.589l-59.128,40.115
			c-1.14-0.591-3.139-1.413-6.226-1.987c-5.326-0.991-15.853-0.867-18.578-1.362c-1.314-0.239-1.388,0.417-0.826,1.284
			c-0.868-0.36-2.251,0.609-3.318,2.184c-1.678,2.477-5.889,7.093-5.889,9.677c0,2.584,4.583,5.185,7.307,5.309
			c0,0-9.289,2.353-11.023,5.697c-1.734,3.344,2.849,2.849,4.335,2.105c1.486-0.743,11.023-3.344,11.023-3.344
			s-9.413,5.202-9.661,8.794c-0.248,3.592,2.972,1.486,5.945,0c2.973-1.486,8.298-4.211,8.298-4.211s-7.679,5.573-6.317,8.05
			c1.362,2.477,7.679-3.179,12.757-5.491c5.078-2.312,8.916-2.652,13.201-4.317c5.996-2.329,9.159-7.346,9.16-7.347
			C132.478,326.821,177.753,309.217,192.09,291.186z M92.491,324.871c-4.211,1.486-9.042,0-9.661-0.743
			c-0.619-0.743,4.087-5.078,4.087-8.422c0-0.523-0.066-0.928-0.174-1.25c0.692,0.723,1.664,1.452,2.641,1.869
			c2.611,1.115,8.308,1.727,9.795,2.597C100.665,319.793,96.702,323.385,92.491,324.871z"/>
		<path style="fill:#3D2624;" d="M386.837,240.353c0,0,5.384,16.442,1.7,28.696c-3.684,12.253-17.783,15.017-17.783,15.017
			l2.267-2.834c0,0,13.886-2.338,14.665-21.396C388.38,242.905,386.837,240.353,386.837,240.353z"/>
		<path style="fill:#AF5448;" d="M99.974,318.727c0,0,4.675,2.657,9.882,2.657c5.207,0-1.062,2.338-4.941,1.169
			C101.036,321.384,99.974,318.727,99.974,318.727z"/>
		<path style="fill:#AF5448;" d="M116.379,327.975c0,0-3.188,0.106-7.651,2.444c-4.463,2.338-6.801,8.289-7.97,7.333
			C99.589,336.796,102.777,327.656,116.379,327.975z"/>
		<path style="fill:#AF5448;" d="M85.585,330.656c0,0,9.769,7.9,10.938,8.006C97.692,338.768,92.492,331.081,85.585,330.656z"/>
		<path style="fill:#EFC9B6;" d="M205.742,245.888c0,0,4.821-2.525,19.514-2.525c14.693,0,39.148,5.739,39.148,5.739
			S219.286,249.332,205.742,245.888z"/>
		<path style="fill:#EFC9B6;" d="M294.523,294.487l1.168,5.046v0.011l-20.827,6.428c0,0,10.595-25.605,10.392-45.2
			c-0.204-19.595,6.192-43.978,6.192-43.978l8.549,24.351c-2.71,8.581-5.475,16.927-7.757,23.666
			C288.931,274.603,289.745,285.316,294.523,294.487z"/>
		<path style="fill:#C56E5D;" d="M402.118,355.317c-1.082-3.608-9.771-7.649-9.771-7.649c2.7,0.385,7.687-1.318,8.167-3.857
			c0.481-2.539-2.798-7.858-3.986-10.604c-0.755-1.746-1.934-2.955-2.854-2.763c0.713-0.746,0.763-1.405-0.572-1.415
			c-2.769-0.02-13.09-2.1-18.507-2.118c-2.184-0.007-3.868,0.203-5.11,0.455l-39.61-55.699c-2.19-13.613-5.212-48.071-8.785-63.337
			c-4.676-19.979-15.088-25.533-15.088-25.533s-12.912,7.679-15.065,22.557c-2.153,14.878,16.809,81.443,16.809,81.443
			c6.734,18.937,42.195,49.2,47.132,54.854l0,0c0,0,2.595,4.456,8.053,7.86c3.901,2.433,7.609,3.482,12.168,6.698
			c4.559,3.216,9.713,9.949,11.513,7.768c1.8-2.18-4.708-9.085-4.708-9.085s4.726,3.668,7.37,5.681
			c2.644,2.013,5.416,4.681,5.841,1.106c0.425-3.575-7.856-10.437-7.856-10.437s8.886,4.33,10.208,5.336
			C398.789,357.586,403.199,358.925,402.118,355.317z M385.3,340.283c-3.861-2.244-7.087-6.51-5.465-7.089
			c1.622-0.579,7.334-0.12,10.107-0.73c1.037-0.228,2.128-0.763,2.943-1.345c-0.166,0.296-0.306,0.682-0.404,1.195
			c-0.622,3.286,3.196,8.421,2.449,9.036C394.184,341.965,389.161,342.527,385.3,340.283z"/>
		<path style="fill:#AF5448;" d="M378.583,333.729c0,0-4.675,2.657-9.882,2.657c-5.207,0,1.062,2.338,4.941,1.169
			C377.521,336.386,378.583,333.729,378.583,333.729z"/>
		<path style="fill:#AF5448;" d="M358.798,340.722c0,0,3.188,0.106,7.652,2.444c4.463,2.338,6.801,8.289,7.97,7.333
			C375.588,349.542,372.4,340.403,358.798,340.722z"/>
		<path style="fill:#AF5448;" d="M388.396,346.127c0,0-9.769,7.899-10.938,8.006C376.289,354.239,381.488,346.552,388.396,346.127z"
			/>
		<path style="fill:#EFC9B6;" d="M236.161,175.331c0,0-4.642,8.839,2.73,11.249c7.372,2.411,19.998-5.969,26.426-12.167
			c0,0-8.494,13.66-22.269,15.84C229.274,192.434,232.469,178.338,236.161,175.331z"/>
	</g>
</g>
</svg>
