<?xml version="1.0" encoding="utf-8"?>
<!-- Generator: Adobe Illustrator 27.5.0, SVG Export Plug-In . SVG Version: 6.00 Build 0)  -->
<svg version="1.1" xmlns="http://www.w3.org/2000/svg" xmlns:xlink="http://www.w3.org/1999/xlink" x="0px" y="0px"
	 viewBox="0 0 500 500" style="enable-background:new 0 0 500 500;" xml:space="preserve">
<g id="Background_Complete">
	<g>
		<g>
			<path style="fill:#EBEBEB;" d="M335.982,216.501c-1.411-10.391-6.664-20.038-13.811-27.711
				c-7.002-7.516-16.061-13.369-26.141-15.344c-10.709-2.098-22.241,0.416-31.104,6.78c-5.272,3.786-9.555,8.901-12.461,14.7
				c-3.079-5.026-7.235-9.392-12.163-12.628c-9.123-5.988-20.75-8.018-31.36-5.474c-9.991,2.395-18.796,8.621-25.477,16.424
				c-6.82,7.964-11.666,17.823-12.64,28.264c-1.219,13.077,1.601,27.304,8.602,38.415c7.395,11.735,19.139,21.091,31.165,27.998
				c20.223,11.613,46.833,26.128,46.833,26.128s21.879-17.087,41.599-29.535c11.728-7.404,23.072-17.241,29.967-29.274
				C335.523,243.848,337.746,229.515,335.982,216.501z"/>
		</g>
	</g>
	<g>
		<g>
			<path style="fill:#F5F5F5;" d="M385.435,128.187c-0.656-4.263-2.886-8.193-5.881-11.297c-2.934-3.041-6.702-5.382-10.863-6.121
				c-4.42-0.785-9.145,0.332-12.744,3.014c-2.141,1.595-3.865,3.73-5.018,6.136c-1.303-2.045-3.044-3.81-5.094-5.105
				c-3.795-2.397-8.592-3.147-12.938-2.023c-4.092,1.057-7.668,3.682-10.359,6.939c-2.747,3.325-4.669,7.415-4.994,11.716
				c-0.407,5.387,0.857,11.218,3.817,15.737c3.126,4.773,8.025,8.536,13.021,11.289c8.402,4.63,19.451,10.407,19.451,10.407
				s8.875-7.186,16.895-12.449c4.77-3.13,9.364-7.259,12.113-12.258C385.444,139.438,386.255,133.527,385.435,128.187z"/>
		</g>
	</g>
	<g>
		<g>
			<path style="fill:#EBEBEB;" d="M143.763,88.25c-0.25-1.629-1.102-3.13-2.247-4.315c-1.121-1.161-2.56-2.056-4.149-2.338
				c-1.688-0.3-3.493,0.127-4.868,1.151c-0.818,0.609-1.476,1.425-1.917,2.344c-0.498-0.781-1.163-1.455-1.946-1.95
				c-1.45-0.915-3.282-1.202-4.942-0.773c-1.563,0.404-2.929,1.406-3.957,2.651c-1.049,1.27-1.783,2.832-1.907,4.475
				c-0.155,2.058,0.327,4.285,1.458,6.011c1.194,1.823,3.065,3.26,4.974,4.312c3.209,1.769,7.43,3.975,7.43,3.975
				s3.39-2.745,6.454-4.755c1.822-1.196,3.577-2.772,4.627-4.682C143.767,92.548,144.076,90.29,143.763,88.25z"/>
		</g>
	</g>
	<g>
		<g>
			<path style="fill:#EBEBEB;" d="M284.296,344.539c-0.443-2.884-1.952-5.541-3.978-7.64c-1.985-2.056-4.533-3.64-7.347-4.14
				c-2.989-0.531-6.185,0.225-8.619,2.039c-1.448,1.079-2.614,2.523-3.394,4.15c-0.881-1.383-2.059-2.577-3.445-3.453
				c-2.567-1.621-5.811-2.128-8.75-1.368c-2.767,0.715-5.186,2.49-7.006,4.694c-1.858,2.249-3.158,5.015-3.377,7.924
				c-0.275,3.644,0.579,7.587,2.581,10.643c2.114,3.228,5.427,5.773,8.806,7.635c5.682,3.131,13.156,7.038,13.156,7.038
				s6.002-4.86,11.427-8.42c3.226-2.117,6.333-4.909,8.192-8.29C284.303,352.148,284.851,348.15,284.296,344.539z"/>
		</g>
	</g>
	<g>
		<g>
			<path style="fill:#EBEBEB;" d="M74.9,202.482c-0.31-2.014-1.363-3.87-2.778-5.335c-1.386-1.436-3.166-2.542-5.131-2.891
				c-2.087-0.371-4.319,0.157-6.019,1.424c-1.011,0.753-1.825,1.762-2.37,2.898c-0.615-0.966-1.438-1.799-2.406-2.411
				c-1.792-1.132-4.058-1.486-6.11-0.956c-1.932,0.499-3.621,1.739-4.893,3.278c-1.297,1.57-2.205,3.502-2.358,5.534
				c-0.192,2.544,0.405,5.298,1.803,7.432c1.477,2.254,3.79,4.031,6.15,5.332c3.968,2.187,9.187,4.915,9.187,4.915
				s4.192-3.394,7.98-5.88c2.253-1.479,4.423-3.428,5.721-5.789C74.904,207.795,75.287,205.004,74.9,202.482z"/>
		</g>
	</g>
	<g>
		<g>
			<path style="fill:#F5F5F5;" d="M421.166,88.32c-0.246-1.602-1.085-3.08-2.21-4.246c-1.103-1.143-2.519-2.023-4.083-2.301
				c-1.661-0.295-3.437,0.125-4.79,1.133c-0.805,0.6-1.453,1.402-1.886,2.306c-0.49-0.769-1.144-1.432-1.915-1.919
				c-1.427-0.901-3.229-1.183-4.863-0.76c-1.538,0.397-2.882,1.384-3.894,2.608c-1.033,1.25-1.755,2.787-1.877,4.404
				c-0.153,2.025,0.322,4.216,1.434,5.915c1.175,1.794,3.016,3.208,4.894,4.243c3.158,1.74,7.311,3.912,7.311,3.912
				s3.336-2.701,6.35-4.679c1.793-1.177,3.52-2.728,4.553-4.607C421.17,92.549,421.475,90.327,421.166,88.32z"/>
		</g>
	</g>
	<g>
		<g>
			<path style="fill:#EBEBEB;" d="M443.201,151.75c-0.31-2.014-1.363-3.87-2.778-5.335c-1.386-1.436-3.166-2.542-5.13-2.891
				c-2.087-0.371-4.319,0.157-6.019,1.424c-1.011,0.753-1.825,1.762-2.37,2.898c-0.615-0.966-1.438-1.799-2.406-2.411
				c-1.793-1.132-4.058-1.486-6.111-0.956c-1.932,0.499-3.622,1.739-4.893,3.278c-1.298,1.57-2.205,3.502-2.358,5.533
				c-0.192,2.544,0.405,5.298,1.803,7.433c1.477,2.254,3.79,4.031,6.15,5.332c3.968,2.187,9.187,4.915,9.187,4.915
				s4.192-3.394,7.979-5.88c2.253-1.479,4.423-3.428,5.721-5.789C443.205,157.063,443.588,154.272,443.201,151.75z"/>
		</g>
	</g>
	<g>
		<g>
			<path style="fill:#F5F5F5;" d="M102.166,126.04c-0.526-3.418-2.314-6.569-4.715-9.057c-2.353-2.438-5.373-4.315-8.709-4.908
				c-3.543-0.629-7.331,0.266-10.217,2.416c-1.716,1.279-3.099,2.991-4.023,4.92c-1.045-1.639-2.44-3.055-4.084-4.093
				c-3.043-1.921-6.888-2.523-10.372-1.622c-3.28,0.848-6.147,2.952-8.305,5.564c-2.202,2.666-3.743,5.945-4.003,9.393
				c-0.326,4.319,0.687,8.994,3.06,12.616c2.506,3.826,6.433,6.843,10.439,9.051c6.736,3.712,15.594,8.343,15.594,8.343
				s7.115-5.761,13.545-9.981c3.824-2.51,7.507-5.819,9.711-9.827C102.174,135.059,102.823,130.32,102.166,126.04z"/>
		</g>
	</g>
</g>
<g id="Background_Simple" style="display:none;">
	<path style="display:inline;fill:#F5F5F5;" d="M425.073,101.163l-1.991-3.28c-16.781-27.653-47.121-44.323-79.109-42.3
		c-4.112,0.26-8.206,0.817-12.246,1.681c-29.084,6.226-54.39,28.219-64.879,56.386c-6.169,16.566-7.892,35.639-19.599,48.788
		c-15.236,17.113-41.102,17.65-63.844,16.941s-48.626-0.104-63.787,17.076c-9.495,10.76-12.513,26.061-11.747,40.47
		c2.027,38.15,28.61,72.261,62.417,89.216c33.807,16.955,73.611,18.474,110.611,11.015c51.832-10.448,101.125-39.142,130.753-83.461
		C441.28,209.377,448.779,148.997,425.073,101.163z"/>
</g>
<g id="Desk">
	<g>
		<path style="fill:#263238;" d="M471.168,470.117c0,0.144-100.371,0.26-224.157,0.26c-123.829,0-224.179-0.117-224.179-0.26
			c0-0.144,100.35-0.26,224.179-0.26C370.796,469.856,471.168,469.973,471.168,470.117z"/>
	</g>
</g>
<g id="Hands">
	<g>
		<g>
			<g>
				<polygon style="fill:#AE7461;" points="261.417,143.255 237.437,63.792 223.261,22.265 141.101,23.265 171.377,86.06 
					227.073,172.665 				"/>
				<path style="opacity:0.3;" d="M220.561,162.54c0,0,17.829-44.481,19.321-50.335c2.139-8.394,3.172-29.798,3.172-29.798
					l15.328,47.422l-32.086,42.144L220.561,162.54z"/>
			</g>
			<g>
				<path style="fill:#FFBF9D;" d="M228.982,154.73c-0.175,0.475-21.137,46.919-20.977,53.004c0.16,6.085-0.001,7.366-0.001,7.366
					s-2.081,7.847,1.762,11.049c0,0-2.082,6.78,3.523,14.279l4.923,20.95c0,0-5.883,15.373-4.923,18.415
					c0.961,3.043,23.219,11.049,28.343,9.768c5.124-1.281,16.974-9.288,17.615-11.049c0.641-1.761-0.48-5.124-4.003-7.846
					l20.497-43.716l8.807,20.337c0,0-3.203,8.487,1.441,15.052c4.644,6.565,9.928,6.405,12.01,4.163
					c2.082-2.242,2.619-8.967,2.619-8.967s6.028-8.967,6.348-11.529c0.32-2.562-6.348-20.016-6.348-20.016
					s-11.601-50.104-15.43-53.324c-6.233-5.242-5.49-9.702-2.02-19.271c3.404-9.389,6.029-14.289,11.656-26.612
					c7.921-17.347,63.309-102.105,63.309-102.105h-73.034C285.099,24.677,234.106,140.799,228.982,154.73z"/>
				<g>
					<path style="fill:#FF9A6C;" d="M233.987,275.973c0.115,0.062-0.945,1.993-2.91,3.828c-1.955,1.848-3.949,2.784-4.004,2.665
						c-0.079-0.135,1.749-1.248,3.647-3.044C232.631,277.64,233.857,275.886,233.987,275.973z"/>
				</g>
				<g>
					<path style="fill:#FF9A6C;" d="M242.289,287.73c-0.15-0.032,0.124-1.683,0.099-3.727c-0.011-2.044-0.314-3.69-0.164-3.725
						c0.129-0.039,0.673,1.605,0.685,3.72C242.934,286.114,242.418,287.767,242.289,287.73z"/>
				</g>
				<g>
					<path style="fill:#FF9A6C;" d="M220.512,242.81c0.143,0.018-0.273,4.174-0.929,9.28c-0.656,5.108-1.303,9.232-1.445,9.214
						c-0.143-0.018,0.273-4.173,0.929-9.28C219.722,246.917,220.369,242.792,220.512,242.81z"/>
				</g>
				<g>
					<path style="fill:#FF9A6C;" d="M213.472,218.589c0.132,0.082-0.986,1.994-1.924,4.536c-0.954,2.537-1.36,4.714-1.514,4.69
						c-0.132-0.011,0.049-2.272,1.026-4.871C212.022,220.34,213.365,218.512,213.472,218.589z"/>
				</g>
				<g>
					<path style="fill:#FF9A6C;" d="M210.043,210.246c0.134,0.053-0.106,0.975-0.536,2.059c-0.43,1.084-0.887,1.92-1.02,1.867
						c-0.134-0.053,0.107-0.975,0.536-2.059C209.453,211.029,209.91,210.193,210.043,210.246z"/>
				</g>
				<g>
					<path style="fill:#FF9A6C;" d="M304.816,245.837c0.014,0.161-2.805,0.381-6.094,1.431c-3.298,1.026-5.733,2.462-5.813,2.322
						c-0.078-0.1,2.285-1.768,5.657-2.819C301.93,245.699,304.822,245.71,304.816,245.837z"/>
				</g>
				<g>
					<path style="fill:#FF9A6C;" d="M287.875,250.29c-0.129,0.065-0.854-1.118-1.621-2.64c-0.767-1.523-1.284-2.81-1.155-2.875
						c0.128-0.065,0.854,1.117,1.621,2.641C287.486,248.938,288.003,250.225,287.875,250.29z"/>
				</g>
				<g>
					<path style="fill:#FF9A6C;" d="M221.655,281.087c-0.006,0.131-2.027,0-4.268-1.022c-2.249-1.007-3.681-2.438-3.587-2.529
						c0.099-0.122,1.632,1.085,3.802,2.054C219.761,280.578,221.681,280.932,221.655,281.087z"/>
				</g>
				<g style="opacity:0.2;">
					<path style="fill:#FFFFFF;" d="M290.874,265.262c-0.436-2.117,1.09-4.272,2.73-5.681c1.64-1.409,3.88-2.093,6.027-1.842
						c0,0,0.586,0.312,0.531,0.748c-0.054,0.436-1.229,6.222-2.452,7.63C296.488,267.524,291.45,268.058,290.874,265.262z"/>
				</g>
			</g>
			<g>
				<path style="fill:#FF9A6C;" d="M242.291,280.05c1.374,0.611,3.008,0.607,4.378-0.013c1.37-0.619,2.453-1.843,2.902-3.278
					c2.796,0.037,5.587-1.139,7.511-3.167c0.163-0.171,0.33-0.384,0.289-0.617c-0.025-0.139-0.121-0.254-0.217-0.358
					c-0.681-0.741-1.521-1.335-2.446-1.729l-7.735,3.557L242.291,280.05z"/>
				<path style="fill:#FF9A6C;" d="M259.33,198.42c0,0,4.652,1.264,7.762,5.217c2.947,3.747,10.353,23.765,10.353,23.765
					l-4.243,0.412L259.33,198.42z"/>
				<path style="fill:#AE7461;" d="M282.493,231.364c0,0-3.702-5.17-6.753-4.414c0,0-7.149-21.633-14.612-29.389
					c-7.463-7.756-14.341-2.78-13.755,3.658c0.585,6.439,6.658,17.029,7.975,22.736c1.317,5.707,4.926,19.99,9.316,23.648
					c4.39,3.658,12.78,4.843,18.912,4.19l0,0c0,0,0.941-2.283,1.612-7.405S285.392,235.022,282.493,231.364z"/>
				<path style="fill:#AE7461;" d="M237.323,197.765c-0.456,0.125-7.47,2.54-2.092,16.286c5.379,13.745,7.022,28.836,7.919,34.065
					c0.897,5.229,2.988,10.907,10.309,12.849c7.321,1.942,22.561-1.494,24.204-2.689c1.644-1.195,4.184-2.57,3.885-6.44
					l-24.132-29.113C257.416,222.722,249.275,194.478,237.323,197.765z"/>
				<path style="fill:#AE7461;" d="M229.553,221.969c0,0-6.126,1.195-3.735,10.907c2.391,9.712,6.568,27.013,7.393,28.671
					c0.825,1.658,6.054,13.462,12.329,13.76c6.275,0.299,9.425-1.502,11.137-3.366c1.712-1.864,4.574-5.634,4.861-10.474
					l-14.2-11.111l-7.987-23.034C239.352,227.323,235.53,219.429,229.553,221.969z"/>
				<path style="fill:#AE7461;" d="M227.91,257.528c0,0-3.946,0.896-2.645,8.068c1.301,7.172,4.886,15.688,12.506,14.941
					c7.62-0.747,9.861-0.682,10.907-5.197l-5.855-0.862c0,0-5.052-12.02-6.696-14.709
					C234.484,257.08,231.629,256.181,227.91,257.528z"/>
				<g>
					<path style="fill:#6F4439;" d="M252.656,265.585c-0.148-0.039,0.074-1.13-0.147-2.443c-0.2-1.317-0.752-2.283-0.624-2.367
						c0.1-0.091,0.912,0.834,1.138,2.285C253.262,264.508,252.78,265.64,252.656,265.585z"/>
				</g>
				<g>
					<path style="fill:#6F4439;" d="M250.116,219.57c0.075,0.113-1.83,1.47-4.446,2.659c-2.613,1.198-4.887,1.748-4.923,1.617
						c-0.045-0.145,2.131-0.909,4.706-2.091C248.032,220.584,250.035,219.441,250.116,219.57z"/>
				</g>
				<g>
					<path style="fill:#6F4439;" d="M263.981,213.517c0.032,0.014-0.002,0.129-0.114,0.34c-0.135,0.178-0.362,0.415-0.676,0.65
						c-0.626,0.473-1.572,0.975-2.644,1.445c-2.149,0.935-3.984,1.426-4.029,1.293c-0.048-0.139,1.699-0.848,3.82-1.77
						c1.058-0.464,2.005-0.902,2.65-1.275c0.324-0.186,0.56-0.357,0.729-0.479C263.849,213.583,263.949,213.503,263.981,213.517z"/>
				</g>
				<g style="opacity:0.1;">
					<path style="fill:#FFFFFF;" d="M257.436,196.68c1.051,1.584,1.968,3.262,2.055,5.202c0.047,1.053-0.204,2.116-0.797,2.987
						c-1.844,2.707-5.354,1.787-7.143-0.279c-1.187-1.371-1.798-3.116-2.287-4.878c-0.348-1.251-0.08-2.632,0.814-3.574
						c0.438-0.462,1.05-0.861,1.904-1.057c1.166-0.268,2.169-0.228,2.947-0.088C255.961,195.18,256.856,195.806,257.436,196.68z"/>
				</g>
				<g>
					<path style="fill:#6F4439;" d="M257.794,250.047c-0.02,0.085-0.63-0.039-1.61-0.025c-0.978,0.008-2.33,0.221-3.686,0.839
						c-1.352,0.626-2.394,1.515-3.037,2.251c-0.648,0.735-0.951,1.279-1.029,1.239c-0.051-0.022,0.138-0.637,0.743-1.47
						c0.597-0.832,1.67-1.829,3.106-2.493c1.438-0.657,2.894-0.823,3.914-0.734C257.221,249.737,257.811,249.994,257.794,250.047z"
						/>
				</g>
				<g>
					<path style="fill:#6F4439;" d="M258.859,253.19c0.113,0.061-1.142,1.898-3.502,3.16c-2.35,1.284-4.574,1.328-4.563,1.2
						c-0.026-0.159,2.076-0.429,4.315-1.658C257.363,254.692,258.74,253.081,258.859,253.19z"/>
				</g>
				<g>
					<path style="fill:#6F4439;" d="M273.641,238.639c-0.051,0.069-0.542-0.521-1.633-0.462c-1.065,0.024-2.498,0.636-4.039,1.315
						c-3.084,1.393-5.253,3.124-5.35,2.998c-0.094-0.089,1.974-2.042,5.134-3.472c1.562-0.686,3.056-1.272,4.259-1.21
						c0.591,0.025,1.059,0.224,1.316,0.432C273.586,238.451,273.663,238.622,273.641,238.639z"/>
				</g>
				<g>
					<path style="fill:#6F4439;" d="M273.978,241.898c0.085,0.107-1.024,1.074-2.669,1.795c-1.642,0.73-3.103,0.896-3.126,0.762
						c-0.032-0.148,1.333-0.534,2.915-1.238C272.685,242.523,273.89,241.775,273.978,241.898z"/>
				</g>
				<g style="opacity:0.1;">
					<path style="fill:#FFFFFF;" d="M234.743,225.67c0.685,1.727,1.381,3.514,1.331,5.371c-0.05,1.857-1.043,3.821-2.8,4.425
						c-1.873,0.644-3.987-0.477-5.119-2.102c-1.132-1.625-1.51-3.643-1.859-5.592c0,0,0.415-4.345,3.624-5.05
						S234.743,225.67,234.743,225.67z"/>
				</g>
				<g style="opacity:0.1;">
					<path style="fill:#FFFFFF;" d="M239.615,198.583c4.068,1.025,4.912,4.891,5.78,8.193c0.361,1.375,0.501,2.901-0.151,4.165
						c-0.767,1.49-2.52,2.289-4.196,2.282c-1.675-0.007-3.928-0.128-5.436-2.677c0,0-2.419-3.179-1.207-7.921
						C235.618,197.883,238.417,198.281,239.615,198.583z"/>
				</g>
				<g style="opacity:0.1;">
					<path style="fill:#FFFFFF;" d="M228.853,258.593c-1.201,0.057-2.217,1.032-2.623,2.163c-0.407,1.131-0.304,2.383-0.05,3.558
						c0.244,1.13,0.676,2.304,1.617,2.977c0.72,0.515,1.662,0.661,2.536,0.519c1.503-0.245,2.132-1.051,2.681-2.471
						c0.549-1.421,0.179-3.379-0.515-4.736C231.743,259.127,230.645,258.372,228.853,258.593"/>
				</g>
				<g>
					<path style="fill:#6F4439;" d="M239.124,226.54c0.018-0.003,0.063,0.163,0.133,0.483c0.075,0.38,0.167,0.843,0.278,1.403
						c0.23,1.22,0.531,2.991,0.876,5.184c0.705,4.38,1.495,10.468,2.684,17.113c0.322,1.646,0.771,3.231,1.549,4.579
						c0.773,1.35,1.924,2.371,3.182,3.054c2.548,1.369,5.23,1.655,7.409,1.942c2.201,0.26,3.992,0.556,5.187,0.923
						c0.6,0.173,1.052,0.35,1.354,0.479c0.299,0.136,0.452,0.215,0.445,0.231c-0.018,0.045-0.65-0.23-1.851-0.514
						c-1.198-0.302-2.968-0.539-5.177-0.753c-2.185-0.244-4.919-0.482-7.596-1.887c-1.321-0.699-2.568-1.789-3.393-3.218
						c-0.829-1.423-1.292-3.066-1.619-4.735c-1.196-6.684-1.926-12.767-2.538-17.161c-0.292-2.138-0.533-3.896-0.712-5.205
						c-0.073-0.566-0.133-1.034-0.182-1.417C239.117,226.715,239.106,226.543,239.124,226.54z"/>
				</g>
				<g>
					<path style="fill:#6F4439;" d="M231.102,249.456c0.036-0.005,0.137,0.462,0.294,1.311c0.173,0.949,0.392,2.153,0.654,3.591
						c0.588,3.007,1.429,7.229,3.544,11.4c2.106,4.182,5.577,6.942,8.348,8.164c2.792,1.267,4.762,1.295,4.736,1.418
						c-0.002,0.027-0.483,0.031-1.344-0.082c-0.861-0.11-2.1-0.397-3.54-0.999c-1.442-0.595-3.054-1.573-4.598-2.95
						c-1.535-1.383-2.975-3.188-4.064-5.314c-2.158-4.26-2.946-8.541-3.444-11.574c-0.241-1.527-0.396-2.767-0.492-3.625
						C231.101,249.938,231.067,249.461,231.102,249.456z"/>
				</g>
				<g>
					<path style="fill:#6F4439;" d="M283.576,251.793c0.002,0.018-0.239,0.052-0.7,0.101c-0.46,0.056-1.142,0.1-2.021,0.147
						c-1.757,0.074-4.318,0.07-7.445-0.382c-1.558-0.249-3.259-0.615-5.013-1.25c-1.743-0.64-3.574-1.546-5.138-2.993
						c-1.53-1.482-2.688-3.432-3.489-5.566c-0.816-2.135-1.361-4.433-1.83-6.785c-1.194-9.603-5.569-17.253-7.75-23.146
						c-1.167-2.92-1.946-5.352-2.372-7.062c-0.204-0.857-0.346-1.526-0.402-1.987c-0.069-0.459-0.096-0.7-0.079-0.702
						c0.057-0.01,0.193,0.954,0.676,2.638c0.483,1.683,1.311,4.082,2.518,6.976c1.185,2.904,2.746,6.299,4.35,10.138
						c0.785,1.921,1.609,3.967,2.144,6.183c0.553,2.206,0.953,4.516,1.425,6.86c0.467,2.343,1.003,4.614,1.796,6.706
						c0.776,2.09,1.895,3.98,3.342,5.4c1.486,1.393,3.256,2.293,4.958,2.937c1.712,0.64,3.385,1.023,4.922,1.292
						c3.087,0.493,5.631,0.555,7.382,0.543c0.876-0.015,1.557-0.026,2.019-0.049C283.331,251.774,283.575,251.775,283.576,251.793z"
						/>
				</g>
				<g>
					<path style="fill:#6F4439;" d="M279.217,240.271c-0.086-0.008-0.035-0.787-0.142-2.026c-0.096-1.24-0.436-2.927-1.052-4.731
						c-0.609-1.805-1.278-3.413-1.702-4.601c-0.432-1.186-0.646-1.939-0.581-1.964c0.069-0.026,0.404,0.678,0.922,1.825
						c0.51,1.15,1.235,2.736,1.855,4.575c0.628,1.835,0.923,3.598,0.926,4.877C279.456,239.505,279.273,240.279,279.217,240.271z"/>
				</g>
			</g>
			<g>
				<path style="fill:#AE7461;" d="M285.188,172.665c0,0,20.337,6.245,24.82,13.931c4.484,7.686,7.526,27.062,5.284,32.347
					c-2.242,5.284-16.814,22.258-20.177,21.458c-3.363-0.801-11.209-5.925-7.526-15.373c3.683-9.448,7.206-15.693,7.206-15.693
					C292.66,193.575,289.099,179.973,285.188,172.665z"/>
				<g style="opacity:0.1;">
					<path style="fill:#FFFFFF;" d="M302.413,224.073c-3.55-3.275-7.822-1.365-9.889,0.954c-2.067,2.318-3.143,5.493-2.91,8.59
						c0.19,2.536,1.57,5.286,4.048,5.858c2.458,0.567,4.838-1.216,6.431-3.171c1.579-1.938,2.806-4.163,3.604-6.532
						c0.343-1.02,0.61-2.098,0.47-3.165C304.028,225.538,303.409,224.48,302.413,224.073"/>
				</g>
				<g>
					<path style="fill:#6F4439;" d="M314.793,214.901c-0.102,0.133-2.227-1.805-5.487-2.975c-3.247-1.21-6.121-1.1-6.113-1.268
						c-0.003-0.062,0.707-0.173,1.866-0.125c1.155,0.046,2.757,0.296,4.426,0.904c1.667,0.612,3.052,1.454,3.964,2.165
						C314.364,214.312,314.835,214.855,314.793,214.901z"/>
				</g>
				<g>
					<path style="fill:#6F4439;" d="M299.429,186.024c0.132,0.111-2.371,2.54-4.098,6.382c-1.771,3.823-1.964,7.306-2.134,7.278
						c-0.06-0.003-0.094-0.871,0.103-2.259c0.194-1.385,0.669-3.283,1.557-5.236c0.893-1.95,2.015-3.553,2.933-4.607
						C298.709,186.524,299.387,185.98,299.429,186.024z"/>
				</g>
			</g>
			<g>
				<path style="fill:#FF725E;" d="M279.312,24.677c0,0-31.973,52.451-33.881,65.991c-0.416,2.952-0.654,19.788-0.654,19.788
					l-8.462,20.633l51.56,19.806l8.438-20.655c0,0,7.333,1.115,14.715-7.136c7.382-8.25,23.738-44.197,32.676-58.951
					c8.012-13.225,21.172-39.476,21.172-39.476H279.312z"/>
				<g>
					<path style="fill:#263238;" d="M244.777,110.456c0.008-0.016,0.19,0.051,0.529,0.194c0.39,0.171,0.877,0.385,1.474,0.647
						c1.271,0.579,3.122,1.393,5.416,2.378c4.587,1.975,10.999,4.522,18.162,7.127c7.152,2.553,13.622,4.862,18.391,6.564
						c2.351,0.849,4.249,1.546,5.554,2.048c0.607,0.238,1.102,0.432,1.499,0.587c0.341,0.14,0.517,0.221,0.511,0.238
						c-0.006,0.017-0.194-0.031-0.546-0.139c-0.405-0.131-0.912-0.295-1.532-0.495c-1.393-0.47-3.292-1.11-5.608-1.891
						c-4.73-1.611-11.274-3.816-18.448-6.422c-7.17-2.608-13.575-5.215-18.131-7.28c-2.279-1.03-4.109-1.896-5.355-2.532
						c-0.58-0.298-1.053-0.541-1.433-0.736C244.936,110.571,244.769,110.472,244.777,110.456z"/>
				</g>
				<g>
					<path style="fill:#263238;" d="M245.442,134.334c-0.064-0.019,0.208-1.179,0.782-3.017c0.572-1.837,1.465-4.346,2.621-7.048
						c1.159-2.702,2.361-5.078,3.296-6.76c0.935-1.683,1.587-2.68,1.645-2.647c0.067,0.038-0.471,1.098-1.319,2.817
						c-0.849,1.719-1.991,4.108-3.144,6.795c-1.15,2.687-2.092,5.161-2.751,6.962C245.912,133.235,245.515,134.356,245.442,134.334z
						"/>
				</g>
				<g>
					<path style="fill:#263238;" d="M265.88,119.955c0.068,0.034-0.405,1.12-1.158,2.876c-0.754,1.756-1.774,4.19-2.809,6.913
						c-1.034,2.725-1.886,5.222-2.488,7.036c-0.602,1.814-0.97,2.94-1.043,2.92c-0.066-0.018,0.177-1.18,0.691-3.027
						c0.513-1.847,1.315-4.376,2.353-7.114c1.04-2.736,2.119-5.159,2.961-6.882C265.229,120.955,265.819,119.925,265.88,119.955z"/>
				</g>
				<g>
					<path style="fill:#263238;" d="M281.038,125.821c0.132,0.058-1.612,4.335-3.893,9.553c-2.283,5.22-4.239,9.403-4.371,9.346
						c-0.132-0.058,1.611-4.335,3.894-9.554C278.949,129.948,280.906,125.763,281.038,125.821z"/>
				</g>
				<polygon style="fill:#FF9A6C;" points="237.744,133.608 238.465,131.915 284.584,149.63 282.787,154.457 				"/>
			</g>
			<g>
				<path style="fill:#455A64;" d="M241.974,77.707l0.812-2.39c0.558-1.641,0.556-3.42-0.005-5.06l-16.865-49.349l-93.802,1.357
					l28.152,48.279l16.087,29.645c0.884,1.63,2.202,2.984,3.806,3.914l4.683,2.713l5.611,8.908l53.192-31.487L241.974,77.707z"/>
				<g>
					<path style="fill:#263238;" d="M242.187,78.195c0.009,0.016-0.179,0.14-0.546,0.362c-0.416,0.245-0.952,0.56-1.615,0.95
						c-1.407,0.817-3.458,1.973-6.005,3.379c-5.092,2.813-12.184,6.598-20.112,10.593c-7.932,3.993-15.196,7.438-20.489,9.854
						c-2.646,1.209-4.795,2.169-6.29,2.812c-0.708,0.301-1.28,0.543-1.725,0.732c-0.397,0.162-0.609,0.239-0.616,0.223
						c-0.007-0.016,0.19-0.126,0.573-0.318c0.434-0.211,0.992-0.483,1.684-0.82c1.526-0.727,3.636-1.732,6.218-2.962
						c5.25-2.501,12.484-5.995,20.41-9.986c7.923-3.992,15.036-7.722,20.171-10.451c2.525-1.342,4.589-2.439,6.082-3.233
						c0.683-0.355,1.234-0.642,1.662-0.865C241.973,78.273,242.178,78.179,242.187,78.195z"/>
				</g>
			</g>
		</g>
		<path style="opacity:0.3;" d="M288.4,180.289c0,0,8.444,15.817,6.396,29.046C293.568,199.484,291.474,189.795,288.4,180.289z"/>
	</g>
</g>
<g id="Characters">
	<g>
		<path style="fill:#263238;" d="M321.477,469.877l3.548-22.233l106.704-8.783c0,0,11.254,13.961,13.345,31.428L321.477,469.877z"/>
		<path style="fill:#455A64;" d="M315.007,320.744l-26.031,61.092l-32.944,46.026l13.219,28.355c0,0,39.683-46.675,46.147-54.314
			c6.464-7.64,24.81-55.985,24.81-55.985L315.007,320.744z"/>
		<g>
			<g>
				<g>
					<path style="fill:#263238;" d="M337.79,290.018c8.689-26.614-4.879-50.156,4.572-83.524
						c5.801-20.484,35.847-26.558,35.847-26.558c36.759-2.397,43.324,23.344,47.035,46.791c1.746,11.03,16.939,51.891,18.72,68.506
						c1.91,16.582-1.711,18.107,10.624,32.271c2.53,2.906,7,5.93,4.75,12.429c-1.217,3.515-7.294,10.553-11.185,11.643
						c3.657,4.941,2.576,12.012-1.572,16.62c-4.149,4.608-10.778,6.938-17.306,7.293c-6.528,0.355-13.018-1.066-19.25-2.872
						c-21.462-6.219-41.456-17.381-55.808-33.198C339.863,323.603,327.982,313.056,337.79,290.018z"/>
					<g>
						<g>
							<g>
								<g>
									<path style="fill:#AE7461;" d="M373.318,189.531l2.3-2.192l24.852,10.016c3.596,0.199,6.441,3.116,6.551,6.716l-3.18,48.32
										c0.032,5.491,0.484,43.568,0.484,43.568l-5.397,8.319c-7.958,10.507-24.329,9.642-30.63-1.935
										c-0.44-0.809-0.746-1.519-0.879-2.094c-0.133-0.722-0.33-1.197-0.37-1.811c-0.74-6.515-1.372-6.549-1.372-6.549
										c-0.443-7.153,0.001-15.702,0-15.635c0,0-15.222-1.75-19.337-21.289c-2.046-9.717-1.661-23.086-1.085-36.243
										C346.051,200.513,358.682,189.513,373.318,189.531z"/>
								</g>
							</g>
							<g>
								<g>
									<g>
										<g>
											<g>
												<g>
													<g>
														<g>
															<g>
																<g>
																	<g>
																		<g>
																			<g>
																				<g>
																					<g>
																						<g>
																							<g>
																								<g>
																									<g>
																										<g>
																											<g>
																												<path style="fill:#263238;" d="M373.382,231.712c0.02,1.337,1.168,2.422,2.563,2.426
																													c1.393,0.005,2.509-1.071,2.49-2.408c-0.02-1.336-1.168-2.423-2.561-2.428
																													C374.478,229.298,373.362,230.376,373.382,231.712z"/>
																											</g>
																										</g>
																									</g>
																								</g>
																							</g>
																						</g>
																					</g>
																				</g>
																			</g>
																		</g>
																	</g>
																</g>
															</g>
														</g>
														<g>
															<g>
																<g>
																	<g>
																		<g>
																			<g>
																				<g>
																					<g>
																						<g>
																							<g>
																								<g>
																									<g>
																										<g>
																											<g>
																												<path style="fill:#263238;" d="M349.079,231.712c0.02,1.337,1.168,2.422,2.563,2.426
																													c1.393,0.005,2.509-1.071,2.49-2.408c-0.02-1.336-1.168-2.423-2.56-2.428
																													C350.176,229.298,349.059,230.376,349.079,231.712z"/>
																											</g>
																										</g>
																									</g>
																								</g>
																							</g>
																						</g>
																					</g>
																				</g>
																			</g>
																		</g>
																	</g>
																</g>
															</g>
														</g>
														<g>
															<g>
																<g>
																	<g>
																		<g>
																			<g>
																				<g>
																					<g>
																						<g>
																							<g>
																								<g>
																									<g>
																										<g>
																											<g>
																												<g>
																													<path style="fill:#263238;" d="M347.855,223.926c0.33,0.314,2.172-1.198,4.891-1.327
																														c2.714-0.168,4.779,1.131,5.057,0.783c0.138-0.155-0.211-0.733-1.111-1.322
																														c-0.887-0.587-2.376-1.126-4.069-1.034c-1.693,0.094-3.086,0.789-3.872,1.468
																														C347.947,223.176,347.693,223.786,347.855,223.926z"/>
																												</g>
																											</g>
																										</g>
																									</g>
																								</g>
																							</g>
																						</g>
																					</g>
																				</g>
																			</g>
																		</g>
																	</g>
																</g>
															</g>
														</g>
													</g>
													<g>
														<g>
															<g>
																<g>
																	<g>
																		<g>
																			<g>
																				<g>
																					<g>
																						<g>
																							<g>
																								<g>
																									<g>
																										<g>
																											<g>
																												<g>
																													<path style="fill:#263238;" d="M375.438,224.208c0.361,0.278,2.041-1.415,4.73-1.823
																														c2.681-0.446,4.869,0.633,5.11,0.259c0.12-0.168-0.283-0.708-1.242-1.201
																														c-0.942-0.493-2.478-0.877-4.153-0.611c-1.674,0.268-2.988,1.102-3.701,1.858
																														C375.456,223.452,375.264,224.085,375.438,224.208z"/>
																												</g>
																											</g>
																										</g>
																									</g>
																								</g>
																							</g>
																						</g>
																					</g>
																				</g>
																			</g>
																		</g>
																	</g>
																</g>
															</g>
														</g>
													</g>
													<g>
														<g>
															<g>
																<g>
																	<g>
																		<g>
																			<g>
																				<g>
																					<g>
																						<g>
																							<g>
																								<g>
																									<g>
																										<g>
																											<g>
																												<path style="fill:#263238;" d="M365.942,243.994c0.005-0.155-1.699-0.362-4.455-0.575
																													c-0.698-0.037-1.361-0.142-1.502-0.609c-0.189-0.494,0.064-1.256,0.36-2.08
																													c0.569-1.712,1.163-3.507,1.788-5.388c2.473-7.668,4.227-13.959,3.917-14.055
																													c-0.31-0.097-2.566,6.04-5.039,13.707c-0.593,1.89-1.161,3.692-1.7,5.415
																													c-0.223,0.802-0.63,1.72-0.223,2.742c0.213,0.509,0.741,0.86,1.192,0.958
																													c0.452,0.114,0.842,0.101,1.187,0.105C364.23,244.222,365.94,244.149,365.942,243.994z"/>
																											</g>
																										</g>
																									</g>
																								</g>
																							</g>
																						</g>
																					</g>
																				</g>
																			</g>
																		</g>
																	</g>
																</g>
															</g>
														</g>
													</g>
													<g>
														<g>
															<g>
																<g>
																	<g>
																		<g>
																			<g>
																				<g>
																					<g>
																						<g>
																							<g>
																								<g>
																									<g>
																										<g>
																											<path style="fill:#6F4439;" d="M365.678,276.253c0,0,13.293,0.19,26.025-8.358
																												c0,0-6.379,14.005-26.185,13.15L365.678,276.253z"/>
																										</g>
																									</g>
																								</g>
																							</g>
																						</g>
																					</g>
																				</g>
																			</g>
																		</g>
																	</g>
																</g>
															</g>
														</g>
													</g>
													<g>
														<g>
															<g>
																<g>
																	<g>
																		<g>
																			<g>
																				<g>
																					<g>
																						<g>
																							<g>
																								<g>
																									<g>
																										<g>
																											<path style="fill:#6F4439;" d="M367.421,250.487c0.913-1.341,2.59-2.137,4.299-2.039
																												c1.186,0.068,2.407,0.577,3.171,1.502c0.765,0.924,0.983,2.281,0.378,3.229
																												c-0.682,1.068-2.203,1.383-3.518,1.079c-1.316-0.304-2.475-1.102-3.578-1.899
																												c-0.305-0.221-0.617-0.451-0.816-0.765c-0.2-0.313-0.259-0.733-0.047-1.012"/>
																										</g>
																									</g>
																								</g>
																							</g>
																						</g>
																					</g>
																				</g>
																			</g>
																		</g>
																	</g>
																</g>
															</g>
														</g>
													</g>
													<g>
														<g>
															<g>
																<g>
																	<g>
																		<g>
																			<g>
																				<g>
																					<g>
																						<g>
																							<g>
																								<g>
																									<g>
																										<g>
																											<g>
																												<path style="fill:#263238;" d="M374.036,245.473c-0.443-0.004-0.301,2.947-2.722,5.168
																													c-2.415,2.227-5.577,2.054-5.579,2.467c-0.032,0.188,0.729,0.538,2.058,0.508
																													c1.304-0.021,3.185-0.534,4.666-1.893c1.477-1.361,2.053-3.108,2.093-4.324
																													C374.603,246.161,374.237,245.446,374.036,245.473z"/>
																											</g>
																										</g>
																									</g>
																								</g>
																							</g>
																						</g>
																					</g>
																				</g>
																			</g>
																		</g>
																	</g>
																</g>
															</g>
														</g>
													</g>
												</g>
											</g>
										</g>
										<g>
											<g>
												<g>
													<g>
														<g>
															<g>
																<g>
																	<g>
																		<g>
																			<g>
																				<g>
																					<g>
																						<g>
																							<g>
																								<path style="fill:#263238;" d="M372.836,213.611c0.377,0.691,3.01-0.068,6.224-0.171
																									c3.213-0.168,5.9,0.365,6.218-0.355c0.139-0.342-0.41-0.962-1.548-1.513
																									c-1.128-0.551-2.859-0.973-4.786-0.894c-1.926,0.083-3.615,0.65-4.693,1.294
																									C373.164,212.618,372.669,213.282,372.836,213.611z"/>
																							</g>
																						</g>
																					</g>
																				</g>
																			</g>
																		</g>
																	</g>
																</g>
															</g>
														</g>
													</g>
												</g>
											</g>
										</g>
										<g>
											<g>
												<g>
													<g>
														<g>
															<g>
																<g>
																	<g>
																		<g>
																			<g>
																				<g>
																					<g>
																						<g>
																							<g>
																								<path style="fill:#263238;" d="M348.246,212.248c0.509,0.593,2.349-0.141,4.6-0.284
																									c2.245-0.222,4.179,0.206,4.585-0.461c0.177-0.323-0.155-0.926-1.017-1.469
																									c-0.85-0.541-2.247-0.948-3.793-0.824c-1.545,0.127-2.857,0.753-3.608,1.425
																									C348.249,211.308,348.02,211.957,348.246,212.248z"/>
																							</g>
																						</g>
																					</g>
																				</g>
																			</g>
																		</g>
																	</g>
																</g>
															</g>
														</g>
													</g>
												</g>
											</g>
										</g>
									</g>
								</g>
							</g>
						</g>
					</g>
					<g>
						<path style="fill:#263238;" d="M406.524,238.628c0,0-13.922,4.333-21.8-30.026c-2.694-11.749-16.502-19.608-16.502-19.608
							l7.334-2.983c0,0,27.453,7.734,27.915,8.081c0.462,0.346,6.926,14.199,6.926,14.199L406.524,238.628z"/>
					</g>
					<g>
						<g>
							<g>
								<g>
									<g>
										<g>
											<g>
												<g>
													<g>
														<g>
															<g>
																<path style="fill:#AE7461;" d="M400.43,237.349c-0.07-1.467,1.452-5.01,2.889-5.309
																	c3.838-0.797,10.826-0.836,11.383,8.985c0.762,13.424-12.873,11.42-12.919,11.036
																	C401.748,251.762,400.672,242.414,400.43,237.349z"/>
															</g>
														</g>
													</g>
												</g>
											</g>
										</g>
									</g>
								</g>
							</g>
						</g>
					</g>
					<g>
						<g>
							<g>
								<g>
									<g>
										<g>
											<g>
												<g>
													<g>
														<g>
															<g>
																<g>
																	<path style="fill:#6F4439;" d="M405.596,246.743c0.056-0.046,0.243,0.15,0.648,0.309
																		c0.396,0.154,1.066,0.239,1.751-0.063c1.389-0.601,2.455-2.92,2.383-5.344c-0.035-1.224-0.357-2.373-0.844-3.312
																		c-0.465-0.959-1.139-1.609-1.861-1.695c-0.719-0.124-1.201,0.332-1.344,0.719c-0.159,0.386-0.058,0.65-0.128,0.676
																		c-0.035,0.036-0.301-0.208-0.224-0.768c0.041-0.27,0.18-0.596,0.481-0.872c0.307-0.28,0.773-0.44,1.274-0.415
																		c1.039,0.013,2.025,0.913,2.56,1.943c0.593,1.032,0.984,2.322,1.023,3.696c0.068,2.71-1.173,5.32-3.082,5.991
																		c-0.93,0.299-1.734,0.06-2.159-0.234C405.639,247.066,405.551,246.77,405.596,246.743z"/>
																</g>
															</g>
														</g>
													</g>
												</g>
											</g>
										</g>
									</g>
								</g>
							</g>
						</g>
					</g>
					<g>
						<g>
							<path style="fill:#263238;" d="M400.428,237.249c0.005-0.045-0.74-0.047-2.011-0.406c-1.263-0.354-3.039-1.179-4.781-2.774
								c-0.866-0.797-1.719-1.774-2.493-2.921c-0.761-1.155-1.444-2.477-2.029-3.924c-1.189-2.892-1.95-6.263-2.892-9.763
								c-0.943-3.502-1.966-6.809-3.088-9.748c-1.108-2.945-2.336-5.509-3.498-7.585c-1.167-2.075-2.266-3.662-3.075-4.717
								c-0.397-0.534-0.742-0.919-0.962-1.191c-0.226-0.267-0.349-0.404-0.358-0.396c-0.01,0.008,0.095,0.16,0.302,0.441
								c0.202,0.285,0.529,0.684,0.906,1.228c0.772,1.077,1.833,2.677,2.965,4.757c1.128,2.081,2.326,4.64,3.412,7.579
								c1.1,2.933,2.11,6.231,3.051,9.725c0.939,3.489,1.713,6.875,2.932,9.794c0.6,1.46,1.302,2.795,2.088,3.964
								c0.799,1.16,1.678,2.144,2.57,2.943c1.794,1.599,3.621,2.404,4.913,2.721C399.68,237.299,400.428,237.249,400.428,237.249z"
								/>
						</g>
					</g>
				</g>
			</g>
		</g>
		<g>
			<path style="fill:#455A64;" d="M437.251,433.234c-4.913-13.03-10.709-18.722-13.067-26.912c0,0-0.656-9.967-0.478-15.085
				c0.178-5.118,2.176-25.098,2.176-25.098l5.284-57.035c0.386-4.166-1.973-8.101-5.83-9.724l-22.224-10.389
				c-15.988,5.661-29.672,7.312-37.596-1.05c0,0-24.955,7.78-34.69,12.174c-9.35,4.22-14.158,17.784-15.82,20.63
				c0,0,1.709,20.571,4.507,35.375c3.616,19.128,4.848,28.188,5.115,28.951c0.166,0.475,4.157,11.514,6.688,23.875
				c-1.329,4.776-1.006,4.755-0.49,2.569l-7.458,39.094c-1.679,3.397,29.987,15.773,49.836,14.233
				c27.329-0.686,48.501-6.15,65.013-14.675C442.883,445.986,439.551,439.334,437.251,433.234z"/>
			<g>
				<g>
					<path style="fill:#455A64;" d="M427.174,300.436c0,0,22.646,8.302,27.506,41.99c4.86,33.688,14.041,59.527,17.881,79.932
						c2.998,15.931,6.038,47.932,6.038,47.932h-23.802l-22.524-70.743l-6.717-30.092l-5.107-24.207L427.174,300.436z"/>
				</g>
			</g>
		</g>
		<g>
			<path style="fill:#455A64;" d="M430.109,297.336c0,0-0.058-0.096-0.183-0.273c-0.133-0.186-0.32-0.446-0.56-0.781
				c-0.246-0.343-0.568-0.755-0.873-1.293c-0.161-0.264-0.334-0.547-0.519-0.85c-0.093-0.151-0.188-0.308-0.287-0.469
				c-0.086-0.168-0.175-0.341-0.266-0.52c-0.358-0.717-0.794-1.495-1.146-2.405c-0.183-0.451-0.4-0.912-0.579-1.409
				c-0.172-0.5-0.351-1.019-0.536-1.557c-0.686-2.167-1.301-4.692-1.693-7.531c-0.77-5.678-0.717-12.561,0.362-20.062
				c0.482-3.758,1.466-7.631,1.922-11.755c0.229-2.057,0.294-4.188-0.012-6.32c-0.137-1.067-0.41-2.122-0.756-3.157
				c-0.377-1.027-0.835-2.026-1.389-2.981c-2.232-3.839-5.493-6.758-8.617-9.434c-3.171-2.652-6.192-5.24-8.971-7.823
				c-5.57-5.15-10.28-10.111-14.064-14.422c-3.792-4.306-6.658-7.965-8.612-10.509c-0.977-1.273-1.721-2.272-2.223-2.952
				c-0.248-0.33-0.44-0.585-0.578-0.768c-0.132-0.172-0.206-0.256-0.206-0.256s0.056,0.096,0.179,0.274
				c0.132,0.187,0.315,0.449,0.553,0.787c0.485,0.692,1.213,1.704,2.176,2.989c1.926,2.569,4.767,6.252,8.542,10.582
				c3.767,4.335,8.466,9.319,14.034,14.489c2.777,2.591,5.805,5.194,8.968,7.845c3.117,2.674,6.348,5.576,8.544,9.356
				c0.546,0.94,0.996,1.924,1.365,2.928c0.339,1.014,0.608,2.048,0.743,3.097c0.302,2.095,0.241,4.2,0.016,6.242
				c-0.448,4.092-1.426,7.973-1.902,11.747c-1.067,7.526-1.097,14.436-0.295,20.134c0.408,2.849,1.042,5.383,1.747,7.555
				c0.19,0.539,0.374,1.059,0.551,1.56c0.184,0.498,0.406,0.96,0.594,1.411c0.362,0.911,0.809,1.689,1.176,2.404
				c0.094,0.178,0.185,0.35,0.274,0.518c0.101,0.161,0.199,0.316,0.294,0.467c0.19,0.301,0.368,0.583,0.533,0.845
				c0.315,0.534,0.646,0.942,0.901,1.279c0.252,0.328,0.447,0.581,0.586,0.763C430.034,297.254,430.109,297.336,430.109,297.336z"/>
		</g>
		<g>
			<path style="fill:#263238;" d="M331.318,328.869c0.016,0.007-0.072,0.256-0.255,0.723c-0.207,0.511-0.481,1.186-0.824,2.032
				c-0.37,0.877-0.813,1.953-1.274,3.224c-0.472,1.266-1.045,2.694-1.552,4.317c-0.268,0.808-0.548,1.652-0.84,2.532
				c-0.25,0.894-0.51,1.823-0.779,2.783c-0.289,0.956-0.526,1.961-0.748,3.001c-0.213,1.041-0.517,2.096-0.675,3.208
				c-0.863,4.405-1.258,9.349-1.128,14.522c0.287,10.377,2.689,19.564,4.647,26.054c0.51,1.615,0.974,3.08,1.384,4.377
				c0.435,1.264,0.813,2.361,1.129,3.279c0.292,0.864,0.525,1.555,0.702,2.077c0.155,0.477,0.228,0.731,0.212,0.737
				c-0.017,0.006-0.123-0.235-0.31-0.7c-0.2-0.514-0.464-1.194-0.794-2.045c-0.334-0.892-0.763-1.977-1.214-3.253
				c-0.433-1.293-0.922-2.753-1.46-4.363c-2.052-6.476-4.526-15.694-4.816-26.15c-0.132-5.21,0.282-10.194,1.176-14.623
				c0.166-1.118,0.479-2.178,0.701-3.224c0.23-1.045,0.477-2.053,0.777-3.012c0.28-0.962,0.551-1.893,0.812-2.789
				c0.304-0.879,0.596-1.724,0.875-2.531c0.532-1.622,1.131-3.045,1.63-4.304c0.488-1.264,0.959-2.331,1.358-3.197
				c0.38-0.83,0.685-1.494,0.914-1.995C331.181,329.096,331.301,328.861,331.318,328.869z"/>
		</g>
		<path style="fill:#263238;" d="M400.65,270.136c1.676-4.428,3.555-8.868,3.965-13.541l22.608,43.842
			c-2.164-2.939-6.445-3.794-10.306-3.916c-3.861-0.121-7.904,0.214-11.421-1.256c-4.646-1.942-7.28-6.731-7.655-11.407
			C397.466,279.183,398.974,274.564,400.65,270.136z"/>
		<g>
			<path style="fill:#263238;" d="M423.38,297.787c-0.001-0.005-0.06-0.001-0.174,0.013c-0.131,0.018-0.298,0.042-0.504,0.07
				c-0.465,0.072-1.112,0.173-1.934,0.301c-1.701,0.279-4.122,0.675-7.104,1.164c-1.499,0.245-3.137,0.544-4.91,0.683
				c-1.765,0.134-3.698,0.101-5.586-0.524c-1.884-0.622-3.607-1.938-4.866-3.691c-1.246-1.765-2.065-3.911-2.411-6.179
				c-0.339-2.276-0.116-4.546,0.334-6.668c0.468-2.124,1.166-4.114,1.92-5.97c1.521-3.709,3.154-6.953,4.198-9.817
				c1.085-2.849,1.61-5.281,1.787-6.975c0.092-0.847,0.116-1.509,0.113-1.957c-0.004-0.209-0.007-0.377-0.01-0.51
				c-0.004-0.115-0.009-0.173-0.014-0.173c-0.005,0-0.012,0.059-0.018,0.173c-0.006,0.133-0.013,0.3-0.022,0.508
				c-0.018,0.446-0.061,1.104-0.172,1.944c-0.214,1.68-0.767,4.085-1.874,6.91c-1.066,2.842-2.715,6.066-4.258,9.787
				c-0.765,1.862-1.475,3.866-1.953,6.014c-0.459,2.145-0.69,4.456-0.344,6.781c0.352,2.313,1.189,4.505,2.472,6.314
				c1.293,1.797,3.081,3.155,5.026,3.787c1.947,0.636,3.918,0.655,5.699,0.509c1.791-0.153,3.431-0.466,4.927-0.724
				c2.975-0.53,5.39-0.961,7.087-1.263c0.818-0.153,1.461-0.273,1.924-0.359c0.205-0.042,0.369-0.075,0.499-0.101
				C423.324,297.807,423.381,297.792,423.38,297.787z"/>
		</g>
		<g>
			<path style="fill:#263238;" d="M423.53,335.515c0.144-0.007,0.68,8.109,1.199,18.127c0.519,10.021,0.823,18.148,0.679,18.155
				c-0.143,0.008-0.68-8.108-1.199-18.129C423.691,343.652,423.387,335.523,423.53,335.515z"/>
		</g>
	</g>
	<g>
		<g>
			<path style="fill:#FFBF9D;" d="M274.102,461.87c1.379-1.313,0.392-4.24,0.392-4.24s-0.093-0.482-0.185-2.797
				c-0.092-2.315-8.305-21.082-8.383-21.258c-2.296-5.161-48.198-96.606-48.198-96.606l-22.243,15.343
				c0,0,17.291,44.077,20.735,50.465l29.178,39.173c-1.373,1.319-5.799,22.142-5.799,22.142s-2.093,6.796-1.907,7.76
				c0.186,0.965,2.7,4.219,2.7,4.219s0.373,2.54,1.22,3.339c0.847,0.799,2.858,0.727,4.456-1.883
				c1.598-2.61,0.169-5.752,0.169-5.752l2.833-7.944l8.882,16.085c-1.269,1.122-1.61,2.427-1.323,3.08s4.988,3.395,6.967,3.753
				c1.978,0.358,10.229-3.242,10.517-4.422c0.288-1.18-2.332-6.869-2.332-6.869l1.343-8.079
				C275.063,464.393,274.102,461.87,274.102,461.87z"/>
			<path style="fill:#AE7461;" d="M244.707,443.418c0,0-8.154,2.922-9.664,5.953c-1.509,3.031-2.178,10.466-1.194,12.416
				c0.984,1.95,6.944,8.03,8.201,7.641c1.257-0.389,4.108-2.532,2.471-6.027c-1.636-3.495-3.131-5.778-3.131-5.778L244.707,443.418z
				"/>
			<path style="fill:#AE7461;" d="M246.616,465.678c0,0,1.276-2.056,2.453-1.846c0,0,2.171-8.395,4.81-11.527
				c2.639-3.133,5.376-1.416,5.315,1.043c-0.061,2.46-2.1,6.634-2.457,8.834c-0.357,2.2-1.368,7.715-2.943,9.214
				c-1.575,1.499-4.815,2.162-6.671,1.95l-0.405,0.116c0,0-0.415-0.843-0.798-2.771S245.608,467.141,246.616,465.678z"/>
			<path style="fill:#AE7461;" d="M262.925,451.784c0.176,0.036,2.901,0.777,1.204,6.132c-1.697,5.355-1.942,11.126-2.151,13.135
				c-0.209,2.008-0.861,4.217-3.592,5.138c-2.731,0.922-8.604,0-9.259-0.413c-0.654-0.413-1.653-0.871-1.637-2.348l8.432-11.662
				C255.922,461.767,258.303,450.837,262.925,451.784z"/>
			<path style="fill:#AE7461;" d="M266.483,460.78c0,0,2.356,0.3,1.693,4.048c-0.664,3.748-1.815,10.423-2.087,11.073
				c-0.271,0.65-1.961,5.264-4.336,5.535c-2.375,0.271-3.617-0.333-4.314-0.998c-0.697-0.665-1.879-2.025-2.109-3.855l5.113-4.576
				l2.454-8.947C262.897,463.06,264.15,459.966,266.483,460.78z"/>
			<g>
				<path style="fill:#FF9A6C;" d="M266.157,481.399c0.12-0.088,0.677,0.49,1.43,1.103c0.748,0.62,1.422,1.054,1.359,1.189
					c-0.054,0.128-0.882-0.12-1.69-0.787C266.445,482.241,266.042,481.477,266.157,481.399z"/>
			</g>
			<path style="fill:#AE7461;" d="M268.001,474.242c0,0,1.521,0.241,1.207,2.997c-0.314,2.756-1.461,6.08-4.374,5.988
				c-2.912-0.092-3.762-0.011-4.272-1.699l2.202-0.474c0,0,1.616-4.691,2.173-5.754S266.555,473.824,268.001,474.242z"/>
			<g>
				<path style="fill:#FF9A6C;" d="M263.3,486.072c-0.133,0.044-0.445-0.567-0.49-1.392c-0.049-0.826,0.19-1.468,0.328-1.439
					c0.145,0.026,0.146,0.655,0.192,1.409C263.37,485.405,263.441,486.029,263.3,486.072z"/>
			</g>
			<g>
				<path style="fill:#FF9A6C;" d="M270.44,468.467c0.141-0.028,0.561,1.509,0.939,3.431c0.377,1.923,0.569,3.504,0.428,3.532
					c-0.141,0.028-0.561-1.508-0.939-3.432C270.491,470.076,270.299,468.495,270.44,468.467z"/>
			</g>
			<g>
				<path style="fill:#FF9A6C;" d="M272.505,459.093c0.109-0.086,0.733,0.544,1.173,1.527c0.444,0.981,0.502,1.866,0.365,1.89
					c-0.145,0.03-0.422-0.756-0.84-1.677C272.791,459.91,272.386,459.181,272.505,459.093z"/>
			</g>
			<g>
				<path style="fill:#FF9A6C;" d="M273.597,455.839c0.13-0.062,0.39,0.213,0.58,0.614c0.19,0.401,0.24,0.776,0.11,0.838
					c-0.13,0.062-0.39-0.213-0.58-0.614C273.516,456.275,273.467,455.9,273.597,455.839z"/>
			</g>
			<g>
				<path style="fill:#6F4439;" d="M258.807,477.923c-0.128,0.059-0.421-0.367-0.364-0.965c0.055-0.598,0.421-0.963,0.535-0.881
					c0.125,0.078,0.021,0.466-0.017,0.929C258.913,477.469,258.944,477.87,258.807,477.923z"/>
			</g>
			<g style="opacity:0.1;">
				<path style="fill:#FFFFFF;" d="M255.26,451.878c-0.359,0.628-0.665,1.288-0.649,2.027c0.009,0.401,0.131,0.798,0.378,1.114
					c0.768,0.981,2.078,0.544,2.705-0.285c0.416-0.55,0.604-1.228,0.746-1.91c0.101-0.484-0.036-1.001-0.399-1.337
					c-0.178-0.164-0.421-0.301-0.749-0.354c-0.449-0.072-0.829-0.032-1.121,0.041C255.782,451.271,255.458,451.532,255.26,451.878z"
					/>
			</g>
			<g style="opacity:0.1;">
				<path style="fill:#FFFFFF;" d="M238.869,463.411c1.266-1.333,2.936-0.715,3.779,0.113c0.843,0.828,1.331,2.007,1.321,3.189
					c-0.009,0.968-0.464,2.047-1.39,2.326c-0.919,0.277-1.868-0.34-2.522-1.043c-0.648-0.696-1.17-1.51-1.533-2.39
					c-0.156-0.379-0.284-0.781-0.258-1.19C238.293,464.008,238.501,463.59,238.869,463.411"/>
			</g>
			<g>
				<path style="fill:#6F4439;" d="M233.937,460.239c-0.109-0.08,0.576-1.033,1.863-1.596c1.283-0.574,2.449-0.441,2.435-0.306
					c0.004,0.152-1.058,0.256-2.224,0.783C234.838,459.628,234.048,460.344,233.937,460.239z"/>
			</g>
			<g>
				<path style="fill:#FF9A6C;" d="M238.503,471.735c-0.009-0.137,1.107-0.287,2.435,0.041c1.33,0.32,2.252,0.967,2.181,1.085
					c-0.071,0.133-1.05-0.278-2.304-0.579C239.564,471.972,238.505,471.886,238.503,471.735z"/>
			</g>
			<g>
				<path style="fill:#FF9A6C;" d="M245.048,473c-0.132-0.056-0.035-0.586,0.218-1.184c0.253-0.598,0.565-1.037,0.698-0.981
					c0.132,0.056,0.035,0.586-0.218,1.184C245.493,472.617,245.181,473.056,245.048,473z"/>
			</g>
			<g>
				<path style="fill:#6F4439;" d="M238.478,449.685c0.073-0.113,1.24,0.663,2.033,2.15c0.805,1.481,0.811,2.882,0.677,2.881
					c-0.153,0.021-0.383-1.259-1.135-2.634C239.319,450.699,238.376,449.802,238.478,449.685z"/>
			</g>
			<g>
				<path style="fill:#FF9A6C;" d="M270.968,483.031c-0.03-0.146,0.655-0.396,1.426-0.813c0.775-0.409,1.363-0.839,1.468-0.733
					c0.102,0.094-0.37,0.74-1.223,1.193C271.79,483.134,270.99,483.168,270.968,483.031z"/>
			</g>
			<g>
				<path style="fill:#6F4439;" d="M256.139,473.373c0.111-0.102,0.708,0.403,1.559,0.785c0.846,0.395,1.617,0.518,1.613,0.668
					c0.009,0.137-0.87,0.249-1.83-0.194C256.519,474.194,256.03,473.456,256.139,473.373z"/>
			</g>
			<g>
				<path style="fill:#6F4439;" d="M250.115,469.465c0.079-0.124,0.581,0.06,1.182,0.277c0.6,0.221,1.102,0.403,1.083,0.549
					c-0.016,0.14-0.6,0.183-1.261-0.059C250.457,469.991,250.037,469.582,250.115,469.465z"/>
			</g>
			<g style="opacity:0.1;">
				<path style="fill:#FFFFFF;" d="M264.605,462.316c-0.217,0.673-0.436,1.369-0.371,2.073c0.066,0.704,0.492,1.425,1.175,1.61
					c0.727,0.197,1.502-0.281,1.891-0.927c0.389-0.646,0.482-1.421,0.565-2.17c0,0-0.267-1.64-1.503-1.827
					C265.127,460.888,264.605,462.316,264.605,462.316z"/>
			</g>
			<g style="opacity:0.1;">
				<path style="fill:#FFFFFF;" d="M262.074,452.153c-1.519,0.491-1.742,1.981-1.989,3.257c-0.103,0.531-0.117,1.114,0.162,1.578
					c0.329,0.546,1.015,0.806,1.651,0.761c0.636-0.045,1.488-0.147,1.997-1.153c0,0,0.839-1.268,0.259-3.038
					C263.575,451.787,262.522,452.008,262.074,452.153z"/>
			</g>
			<g style="opacity:0.2;">
				<path style="fill:#FFFFFF;" d="M244.286,478.761c0.112-0.815-0.521-1.595-1.18-2.089c-0.658-0.494-1.526-0.697-2.335-0.548
					c0,0-0.215,0.133-0.183,0.297c0.032,0.164,0.623,2.332,1.123,2.836C242.211,479.762,244.138,479.837,244.286,478.761z"/>
			</g>
			<g style="opacity:0.1;">
				<path style="fill:#FFFFFF;" d="M267.67,474.67c0.457-0.009,0.868,0.336,1.051,0.755c0.183,0.419,0.175,0.897,0.108,1.35
					c-0.064,0.435-0.199,0.892-0.539,1.171c-0.26,0.214-0.615,0.293-0.95,0.261c-0.577-0.055-1.108-0.44-1.352-0.966
					s-0.197-1.173,0.11-1.665c0.307-0.492,0.862-0.817,1.44-0.856"/>
			</g>
			<g>
				<path style="fill:#6F4439;" d="M263.15,462.293c0.072,0.007,0.029,1.08-0.097,2.808c-0.128,1.729-0.333,4.108-0.604,6.744
					c-0.076,0.664-0.19,1.332-0.457,1.944c-0.263,0.614-0.718,1.13-1.226,1.462c-1.029,0.67-2.109,0.826-2.957,0.967
					c-1.724,0.206-2.695,0.606-2.727,0.558c-0.052-0.075,0.942-0.622,2.66-0.92c0.836-0.182,1.858-0.384,2.751-1
					c0.441-0.307,0.804-0.734,1.03-1.271c0.227-0.536,0.335-1.154,0.408-1.801c0.269-2.621,0.534-5.005,0.755-6.721
					C262.907,463.345,263.079,462.286,263.15,462.293z"/>
			</g>
			<g>
				<path style="fill:#6F4439;" d="M266.586,471.257c0.068,0.006,0.09,0.739,0.015,1.926c-0.086,1.178-0.262,2.854-0.999,4.564
					c-0.744,1.714-2.014,2.956-3.102,3.508c-1.095,0.571-1.887,0.534-1.882,0.484c-0.019-0.091,0.724-0.189,1.698-0.803
					c0.972-0.596,2.109-1.787,2.81-3.398c0.698-1.617,0.932-3.236,1.11-4.394C266.402,471.978,266.51,471.25,266.586,471.257z"/>
			</g>
			<g>
				<path style="fill:#6F4439;" d="M246.718,473.463c-0.003-0.096,1.355-0.035,3.452-0.482c1.032-0.237,2.289-0.606,3.38-1.442
					c1.114-0.813,1.66-2.328,1.94-3.917c0.288-1.604,0.375-3.195,0.731-4.613c0.328-1.395,0.655-2.656,1.027-3.685
					c0.365-1.032,0.77-1.828,1.09-2.349c0.325-0.52,0.55-0.774,0.576-0.757c0.074,0.045-0.693,1.161-1.316,3.222
					c-0.321,1.025-0.606,2.276-0.909,3.676c-0.32,1.374-0.392,2.947-0.687,4.6c-0.283,1.624-0.886,3.301-2.159,4.203
					c-1.216,0.892-2.531,1.223-3.602,1.423c-1.082,0.196-1.971,0.216-2.58,0.212C247.053,473.546,246.718,473.494,246.718,473.463z"
					/>
			</g>
			<g>
				<path style="fill:#6F4439;" d="M248.084,468.979c-0.128,0.041-0.523-1.206-0.207-2.743c0.303-1.541,1.149-2.538,1.251-2.45
					c0.129,0.083-0.465,1.13-0.741,2.553C248.093,467.756,248.236,468.952,248.084,468.979z"/>
			</g>
		</g>
		<g>
			<g>
				<g>
					<g>
						<g>
							<g>
								<g>
									<g>
										<g>
											<g>
												<g>
													<g>
														<g>
															<path style="fill:#FFBF9D;" d="M107.84,267.753l-2.04-73.716c-1.104-18.321,8.637-34.234,26.982-34.831l1.698,0.043
																c17.093,0.442,30.988,13.929,31.921,31.002c0.869,15.885,1.626,33.447,1.301,41.949
																c-0.672,17.6-18.351,19.883-18.351,19.883c-0.039,0.001,0.056,10.706,0.146,15.874l-8.058,13.701l-20.115,7.063
																L107.84,267.753z"/>
														</g>
													</g>
												</g>
											</g>
										</g>
									</g>
								</g>
							</g>
						</g>
						<g>
							<g>
								<g>
									<g>
										<g>
											<g>
												<g>
													<g>
														<g>
															<g>
																<path style="fill:#FF9A6C;" d="M149.352,252.084c0,0-11.114,0.365-22.748-7.369c0,0,5.173,13.378,22.782,12.247
																	L149.352,252.084z"/>
															</g>
														</g>
													</g>
												</g>
											</g>
										</g>
									</g>
								</g>
							</g>
						</g>
						<g>
							<g>
								<g>
									<g>
										<g>
											<g>
												<g>
													<g>
														<g>
															<g>
																<g>
																	<g>
																		<g>
																			<g>
																				<g>
																					<g>
																						<path style="fill:#263238;" d="M161.026,206.382c0.013,1.329-1.102,2.436-2.49,2.474
																							c-1.385,0.038-2.52-1.005-2.533-2.334c-0.013-1.329,1.102-2.437,2.487-2.476
																							C159.877,204.008,161.013,205.053,161.026,206.382z"/>
																					</g>
																				</g>
																			</g>
																		</g>
																	</g>
																</g>
															</g>
														</g>
													</g>
												</g>
											</g>
										</g>
									</g>
								</g>
							</g>
						</g>
						<g>
							<g>
								<g>
									<g>
										<g>
											<g>
												<g>
													<g>
														<g>
															<g>
																<g>
																	<g>
																		<g>
																			<g>
																				<g>
																					<g>
																						<g>
																							<path style="fill:#263238;" d="M162.458,197.93c-0.32,0.32-2.188-1.139-4.894-1.202
																								c-2.702-0.102-4.723,1.239-5.008,0.9c-0.14-0.15,0.192-0.734,1.073-1.341
																								c0.867-0.604,2.334-1.177,4.02-1.126c1.685,0.053,3.087,0.709,3.885,1.366
																								C162.349,197.186,162.615,197.786,162.458,197.93z"/>
																						</g>
																					</g>
																				</g>
																			</g>
																		</g>
																	</g>
																</g>
															</g>
														</g>
													</g>
												</g>
											</g>
										</g>
									</g>
								</g>
							</g>
						</g>
						<g>
							<g>
								<g>
									<g>
										<g>
											<g>
												<g>
													<g>
														<g>
															<g>
																<g>
																	<g>
																		<g>
																			<g>
																				<g>
																					<g>
																						<path style="fill:#263238;" d="M136.756,205.445c0.013,1.329-1.102,2.435-2.49,2.474
																							c-1.385,0.039-2.521-1.004-2.533-2.334c-0.012-1.329,1.102-2.437,2.488-2.475
																							C135.608,203.071,136.743,204.116,136.756,205.445z"/>
																					</g>
																				</g>
																			</g>
																		</g>
																	</g>
																</g>
															</g>
														</g>
													</g>
												</g>
											</g>
										</g>
									</g>
								</g>
							</g>
						</g>
						<g>
							<g>
								<g>
									<g>
										<g>
											<g>
												<g>
													<g>
														<g>
															<g>
																<g>
																	<g>
																		<g>
																			<g>
																				<g>
																					<g>
																						<g>
																							<path style="fill:#263238;" d="M135.921,197.872c-0.321,0.32-2.192-1.138-4.895-1.201
																								c-2.701-0.101-4.723,1.239-5.008,0.9c-0.14-0.15,0.19-0.733,1.074-1.341
																								c0.867-0.605,2.334-1.177,4.019-1.127c1.685,0.053,3.087,0.711,3.885,1.366
																								C135.81,197.129,136.077,197.73,135.921,197.872z"/>
																						</g>
																					</g>
																				</g>
																			</g>
																		</g>
																	</g>
																</g>
															</g>
														</g>
													</g>
												</g>
											</g>
										</g>
									</g>
								</g>
							</g>
						</g>
						<g>
							<g>
								<g>
									<g>
										<g>
											<g>
												<g>
													<g>
														<g>
															<g>
																<g>
																	<g>
																		<g>
																			<g>
																				<g>
																					<g>
																						<path style="fill:#263238;" d="M145.09,218.912c-0.008-0.154,1.681-0.402,4.415-0.68
																							c0.693-0.053,1.35-0.173,1.479-0.642c0.176-0.495-0.094-1.247-0.408-2.06
																							c-0.606-1.689-1.241-3.459-1.907-5.313c-2.644-7.564-4.539-13.775-4.234-13.879
																							c0.306-0.103,2.697,5.942,5.34,13.506c0.635,1.865,1.243,3.642,1.821,5.343
																							c0.241,0.792,0.668,1.694,0.288,2.721c-0.199,0.511-0.716,0.873-1.162,0.98
																							c-0.447,0.124-0.836,0.121-1.178,0.133C146.798,219.097,145.096,219.066,145.09,218.912z"/>
																					</g>
																				</g>
																			</g>
																		</g>
																	</g>
																</g>
															</g>
														</g>
													</g>
												</g>
											</g>
										</g>
									</g>
								</g>
							</g>
						</g>
						<g>
							<g>
								<g>
									<g>
										<g>
											<g>
												<g>
													<g>
														<g>
															<g>
																<g>
																	<g>
																		<path style="fill:#263238;" d="M137.015,189.432c-0.385,0.681-2.992-0.113-6.186-0.264
																			c-3.192-0.215-5.872,0.275-6.177-0.446c-0.133-0.343,0.423-0.951,1.562-1.481c1.13-0.531,2.857-0.925,4.772-0.817
																			c1.914,0.112,3.585,0.701,4.647,1.357C136.705,188.439,137.187,189.107,137.015,189.432z"/>
																	</g>
																</g>
															</g>
														</g>
													</g>
												</g>
											</g>
										</g>
									</g>
								</g>
							</g>
						</g>
						<g>
							<g>
								<g>
									<g>
										<g>
											<g>
												<g>
													<g>
														<g>
															<g>
																<g>
																	<g>
																		<path style="fill:#263238;" d="M162.787,189.978c-0.569,0.608-2.766-0.054-5.415-0.113
																			c-2.647-0.137-4.897,0.36-5.407-0.289c-0.222-0.314,0.137-0.926,1.124-1.497c0.972-0.569,2.594-1.025,4.414-0.959
																			c1.82,0.068,3.391,0.643,4.306,1.282C162.738,189.044,163.039,189.681,162.787,189.978z"/>
																	</g>
																</g>
															</g>
														</g>
													</g>
												</g>
											</g>
										</g>
									</g>
								</g>
							</g>
						</g>
						<g>
							<g>
								<g>
									<g>
										<g>
											<g>
												<g>
													<g>
														<path style="fill:#FFBF9D;" d="M106.902,207.11c-0.297-0.138-12.004-3.89-11.931,8.156
															c0.074,12.046,12.152,9.487,12.171,9.142C107.161,224.062,106.902,207.11,106.902,207.11z"/>
													</g>
												</g>
											</g>
										</g>
									</g>
								</g>
							</g>
						</g>
						<g>
							<g>
								<g>
									<g>
										<g>
											<g>
												<g>
													<g>
														<g>
															<path style="fill:#FF9A6C;" d="M103.435,219.867c-0.053-0.038-0.209,0.148-0.563,0.313
																c-0.345,0.16-0.939,0.273-1.568,0.042c-1.275-0.459-2.359-2.473-2.431-4.644c-0.037-1.096,0.186-2.141,0.569-3.008
																c0.363-0.883,0.929-1.503,1.569-1.621c0.637-0.151,1.093,0.229,1.242,0.568c0.163,0.336,0.088,0.577,0.153,0.597
																c0.033,0.03,0.257-0.204,0.157-0.7c-0.051-0.239-0.194-0.522-0.479-0.752c-0.29-0.234-0.716-0.351-1.162-0.3
																c-0.929,0.07-1.759,0.93-2.181,1.881c-0.472,0.956-0.749,2.131-0.707,3.362c0.092,2.427,1.348,4.691,3.093,5.183
																c0.849,0.216,1.554-0.044,1.917-0.331C103.415,220.158,103.477,219.889,103.435,219.867z"/>
														</g>
													</g>
												</g>
											</g>
										</g>
									</g>
								</g>
							</g>
						</g>
						<g>
							<g>
								<g>
									<g>
										<g>
											<g>
												<g>
													<g>
														<g>
															<g>
																<path style="fill:#263238;" d="M136.623,220.718c0.414-0.033,0.475,2.733,2.881,4.649
																	c2.403,1.922,5.344,1.553,5.374,1.939c0.042,0.173-0.646,0.55-1.89,0.609c-1.219,0.066-3.01-0.29-4.482-1.462
																	c-1.468-1.175-2.121-2.769-2.238-3.902C136.139,221.397,136.433,220.705,136.623,220.718z"/>
															</g>
														</g>
													</g>
												</g>
											</g>
										</g>
									</g>
								</g>
							</g>
						</g>
					</g>
					<g>
						<g>
							<g>
								<g>
									<g>
										<g>
											<g>
												<path style="fill:#263238;" d="M190.467,174.029c-0.194-0.709-0.713-1.29-1.347-1.661
													c-1.384-0.809-2.973-0.695-4.509-0.713c-3.823-0.045-7.619-1.008-11.034-2.723c1.186-0.607,2.293-1.343,3.231-2.288
													c1.939-1.951,3.046-4.929,2.144-7.527c-0.169-0.488-0.456-0.998-0.95-1.148c-0.784-0.237-1.465,0.534-2.008,1.146
													c-1.786,2.012-3.439,2.879-6.117,2.62c-1.663-0.161-3.275-0.527-4.585-1.336c-0.052-0.054-0.099-0.114-0.152-0.168
													c-0.629-0.644-1.243-1.259-1.848-1.854c-0.001-0.002-0.003-0.004-0.004-0.006l0.002,0.004
													c-4.55-4.476-8.461-7.575-12.48-9.174c-5.891-2.344-15.731-3.263-21.857-1.629c-6.126,1.634-11.613,6.632-12.439,12.918
													c-3.451-2.893-8.614-2.848-12.796-1.147l-0.105-0.046c-4.658,1.682-7.288,6.621-8.645,11.384
													c-0.074,0.26-0.138,0.524-0.208,0.786c-1.567,2.507-3.702,4.658-6.252,6.157c-0.45,0.264-0.965,0.588-1.018,1.107
													c-0.053,0.514,0.384,0.939,0.805,1.238c1.122,0.796,2.426,1.317,3.781,1.553c-0.422,1.132-0.918,2.233-1.533,3.284
													c-0.523,0.894-1.144,1.965-0.68,2.89c0.359,0.716,1.271,1.008,2.063,0.889c0.792-0.12,1.492-0.561,2.167-0.992
													c-0.515,1.248-1.03,2.496-1.546,3.743c1.689,0.287,3.436,0.144,5.073-0.359c1.009,4.445,1.788,12.68,2.946,15.69
													c3.198,0.043,3.973-0.308,5.589,0.221c2.088,0.684,1.308,4.38,4.018,3.319c1.38-0.54,3.48-5.786,3.937-7.196
													c3.03-9.354,4.008-19.364,2.859-29.128c1.924-2.068,4.249-3.76,6.807-4.956l-0.208,0.189
													c4.919-1.731,10.483-3.437,15.166-1.144c3.632,1.779,5.779,5.532,8.501,8.522c5.16,5.668,10.987,8.68,18.646,8.978
													c0.712,5.316,0.953,14.012,1.233,18.973l4.197-9.951l0.003,0.04c0.34-0.583,0.62-1.171,0.891-1.76l0.093-0.179l0-0.022
													c0.43-0.945,0.839-1.893,1.384-2.829c0.016,0.014,0.032,0.028,0.048,0.042c2.699,2.361,6.646-1.282,4.513-4.165
													c-0.423-0.572-0.928-1.081-1.505-1.5c1.234,1.149,3.068,1.694,4.678,1.192c1.61-0.502,2.853-2.137,2.706-3.817
													c-0.101-1.146-0.924-2.168-1.962-2.617c2.173,0.158,4.392-0.324,6.281-1.412
													C189.681,176.758,190.894,175.588,190.467,174.029z"/>
											</g>
										</g>
									</g>
								</g>
							</g>
						</g>
						<g>
							<g>
								<g>
									<g>
										<g>
											<g>
												<path style="fill:#455A64;" d="M122.071,162.492c0.035,0.045-0.736,0.469-1.762,1.625
													c-1.015,1.15-2.152,3.149-2.682,5.865c-0.272,1.35-0.44,2.859-0.432,4.482c0,1.624,0.137,3.362,0.269,5.194
													c0.126,1.831,0.265,3.767,0.156,5.781c-0.055,1.005-0.171,2.029-0.385,3.052c-0.218,1.005-0.477,2.097-1.232,2.963
													c-0.601,0.706-1.609,1.023-2.485,0.847c-0.882-0.152-1.667-0.618-2.244-1.256c-1.14-1.319-1.43-2.997-1.717-4.475
													l0.37,0.043c-0.599,1.333-1.215,2.649-2.13,3.702c-0.9,1.059-2.149,1.762-3.422,1.882
													c-0.634,0.06-1.273-0.039-1.819-0.311c-0.556-0.268-0.962-0.727-1.24-1.211c-0.266-0.494-0.406-1.037-0.381-1.561
													c0.028-0.523,0.23-1.021,0.56-1.374l0.188,0.166c-1.353,1.554-2.785,2.392-3.776,2.857
													c-0.5,0.233-0.9,0.372-1.172,0.461c-0.273,0.082-0.417,0.117-0.42,0.106c-0.004-0.012,0.133-0.068,0.397-0.171
													c0.262-0.109,0.651-0.268,1.136-0.517c0.961-0.496,2.347-1.356,3.644-2.898l0.188,0.166
													c-0.591,0.631-0.62,1.735-0.106,2.62c0.259,0.437,0.631,0.845,1.121,1.072c0.487,0.236,1.069,0.322,1.649,0.262
													c1.169-0.121,2.334-0.781,3.176-1.788c0.863-1.006,1.459-2.288,2.051-3.623l0.251-0.566l0.119,0.61
													c0.288,1.477,0.596,3.088,1.635,4.276c0.516,0.571,1.236,0.992,2.008,1.123c0.773,0.146,1.588-0.112,2.112-0.717
													c0.66-0.75,0.926-1.783,1.138-2.773c0.209-0.998,0.326-2,0.383-2.989c0.113-1.98-0.016-3.903-0.132-5.733
													c-0.121-1.831-0.247-3.577-0.232-5.221c0.008-1.644,0.195-3.174,0.489-4.541c0.575-2.751,1.777-4.775,2.847-5.911
													C121.271,162.867,122.071,162.492,122.071,162.492z"/>
											</g>
										</g>
									</g>
								</g>
							</g>
						</g>
						<g>
							<g>
								<g>
									<g>
										<g>
											<g>
												<path style="fill:#455A64;" d="M176.682,179.423c0.004,0.005-0.044,0.046-0.141,0.121
													c-0.119,0.087-0.263,0.193-0.439,0.323c-0.192,0.145-0.436,0.314-0.745,0.482c-0.304,0.176-0.65,0.39-1.07,0.569
													c-1.634,0.785-4.257,1.568-7.541,1.389c-3.252-0.17-7.161-1.305-10.656-3.885c-3.533-2.518-6.639-6.237-9.184-10.499
													c-1.291-2.129-2.345-4.314-3.505-6.33c-1.153-2.018-2.425-3.882-3.962-5.351c-1.519-1.478-3.28-2.567-5.093-3.063
													c-0.903-0.265-1.813-0.321-2.68-0.298c-0.87,0.049-1.693,0.229-2.451,0.481c-1.518,0.516-2.74,1.361-3.667,2.228
													c-0.93,0.875-1.552,1.798-1.979,2.589c-0.795,1.624-0.835,2.665-0.899,2.647c-0.007-0.001-0.003-0.063,0.013-0.185
													c0.022-0.147,0.049-0.324,0.081-0.54c0.084-0.472,0.285-1.157,0.661-1.994c0.412-0.816,1.027-1.773,1.963-2.684
													c0.932-0.903,2.173-1.787,3.73-2.337c0.778-0.269,1.627-0.463,2.528-0.523c0.898-0.035,1.853,0.019,2.788,0.285
													c1.883,0.499,3.705,1.615,5.266,3.118c1.582,1.497,2.883,3.393,4.049,5.424c1.175,2.031,2.229,4.21,3.509,6.319
													c2.526,4.23,5.587,7.907,9.053,10.402c3.432,2.557,7.247,3.696,10.451,3.903c3.23,0.214,5.821-0.513,7.457-1.244
													C175.868,180.029,176.65,179.372,176.682,179.423z"/>
											</g>
										</g>
									</g>
								</g>
							</g>
						</g>
						<g>
							<g>
								<g>
									<g>
										<g>
											<g>
												<path style="fill:#455A64;" d="M178.255,171.669c0.015,0.025-0.21,0.181-0.63,0.443
													c-0.416,0.27-1.055,0.604-1.869,0.959c-0.812,0.362-1.818,0.701-2.96,0.986c-1.146,0.264-2.43,0.462-3.789,0.518
													c-1.359,0.041-2.654-0.063-3.817-0.243c-1.159-0.202-2.188-0.467-3.024-0.769c-0.837-0.296-1.498-0.582-1.932-0.822
													c-0.439-0.231-0.674-0.371-0.661-0.396c0.034-0.07,1.01,0.427,2.683,0.94c0.835,0.263,1.852,0.494,2.992,0.671
													c1.143,0.156,2.412,0.247,3.744,0.207c1.331-0.056,2.589-0.238,3.718-0.476c1.124-0.259,2.123-0.563,2.936-0.885
													C177.278,172.168,178.216,171.602,178.255,171.669z"/>
											</g>
										</g>
									</g>
								</g>
							</g>
						</g>
					</g>
				</g>
			</g>
		</g>
		<g>
			<polygon style="fill:#263238;" points="104.685,469.753 163.268,470.185 153.881,440.335 99.326,445.617 			"/>
			<path style="fill:#F5F5F5;" d="M107.355,260.992c0,0,10.257,7.204,24.29,7.201c13.404-0.003,19.845-2.882,19.845-2.882
				l2.932,9.363l14.496,102.804l-3.093,72.523l-83.716,1.243l24.898-88.164l-2.439-92.298L107.355,260.992z"/>
			<g>
				<path style="fill:#FF725E;" d="M183.997,277.13l-25.726-11.108l-5.627-9.333l-3.253-1.777l0.819,17.505
					c-0.037,0.111,2.734,35.383,2.665,37.551c-0.928,29.222-3.114,160.088-3.114,160.088l35.106,0.129l3.076-4.237l-2.485-7.938
					l0.8-71.011l1.212-62.767L183.997,277.13z"/>
				<path style="fill:#FF725E;" d="M181.207,275.974c0,0,6.186-0.345,16.57,20.108c8.119,15.992,27.374,50.75,27.374,50.75
					s29.932,51.332,37.038,72.429l-0.376,5.88l-20.624,12.365l-6.028-3.669l-30.229-48.145l-3.228-5.63l-24.063-32.223
					l-25.506-44.391L181.207,275.974z"/>
			</g>
			<path style="fill:#FF725E;" d="M114.83,329.147c-0.859-16.598-4.687-47.691-4.701-48.521c-0.01-0.611-2.611-29.377-2.611-29.377
				l-8.931,10.005l-30.087,10.461v85.591l6.921,47.242l4.667,64.75l36.421,0.62c0,0-0.756-34.137,0.054-58.641
				C117.452,384.366,115.689,345.745,114.83,329.147z"/>
			<path style="fill:#FF725E;" d="M50.297,462.144L39.54,395.52l-0.936-10.755l3.625-3.251c0,0-1.625-54.793,0-67.466
				c1.625-12.673,2.253-18.647,4.943-25.417c3.89-9.79,21.638-16.656,21.638-16.656l3.03,82.163l8.249,105.117L50.297,462.144z"/>
			<path style="fill:#FFBF9D;" d="M76.559,459.598l-25.999,2.52c0.585,4.791,0.895,7.203,0.895,7.203h25.769L76.559,459.598z"/>
			<g>
				<path style="fill:#263238;" d="M66.948,292.441c0,0,0.156,0.605,0.308,1.777c0.168,1.171,0.378,2.901,0.631,5.131
					c0.507,4.46,1.184,10.92,1.957,18.909c0.762,7.99,1.671,17.502,2.455,28.088c0.725,10.588,1.523,22.224,2.359,34.438
					c0.016,0.239,0.033,0.478,0.048,0.699l0.001,0.011l0,0.014c-0.069,6.066,0.248,12.004,0.535,17.726
					c0.292,5.725,0.645,11.242,0.981,16.496c0.688,10.508,1.383,19.96,1.973,27.895c0.598,7.916,1.082,14.327,1.419,18.785
					c0.162,2.198,0.289,3.913,0.376,5.105c0.037,0.566,0.065,1.006,0.086,1.328c0.017,0.299,0.012,0.454,0.012,0.454
					s-0.031-0.151-0.065-0.45c-0.033-0.321-0.079-0.76-0.137-1.324c-0.111-1.191-0.27-2.903-0.474-5.098
					c-0.376-4.456-0.916-10.862-1.584-18.773c-0.637-7.932-1.369-17.383-2.084-27.891c-0.35-5.255-0.714-10.773-1.012-16.501
					c-0.294-5.729-0.615-11.66-0.547-17.766l0.001,0.025c-0.015-0.22-0.031-0.459-0.048-0.699
					c-0.822-12.215-1.606-23.852-2.319-34.441c-0.757-10.578-1.628-20.096-2.343-28.087c-0.755-7.97-1.366-14.429-1.791-18.921
					c-0.23-2.212-0.409-3.939-0.534-5.139c-0.061-0.588-0.114-1.034-0.158-1.333C66.955,292.598,66.948,292.441,66.948,292.441z"/>
			</g>
			<g>
				<path style="fill:#263238;" d="M110.943,298.743c-0.013,0.003-0.052-0.122-0.116-0.367c-0.07-0.288-0.156-0.644-0.262-1.081
					c-0.225-1.005-0.532-2.378-0.914-4.087c-0.763-3.571-1.822-8.534-3.069-14.371l0.427,0.089
					c-2.438,3.475-5.15,7.341-8.005,11.411c-0.629,0.892-1.25,1.774-1.835,2.604l-0.464,0.659l-0.007-0.806
					c-0.078-8.753,0.319-16.541,0.777-22.122c0.226-2.791,0.455-5.033,0.636-6.576c0.092-0.729,0.167-1.317,0.225-1.772
					c0.057-0.404,0.096-0.614,0.112-0.612c0.017,0.002,0.012,0.216-0.014,0.622c-0.034,0.457-0.078,1.047-0.132,1.78
					c-0.116,1.608-0.278,3.838-0.476,6.583c-0.365,5.581-0.699,13.356-0.609,22.092l-0.471-0.147
					c0.584-0.83,1.205-1.713,1.833-2.606c2.868-4.061,5.593-7.918,8.042-11.385l0.319-0.452l0.108,0.541
					c1.171,5.852,2.167,10.829,2.884,14.409c0.327,1.72,0.59,3.102,0.782,4.114c0.076,0.442,0.138,0.803,0.189,1.096
					C110.942,298.61,110.956,298.74,110.943,298.743z"/>
			</g>
			<g>
				<path style="fill:#263238;" d="M157.652,265.211c0.016-0.005,0.089,0.155,0.213,0.467c0.141,0.365,0.315,0.818,0.528,1.372
					c0.485,1.26,1.145,2.974,1.954,5.074c1.649,4.303,4.09,10.227,6.457,17.034l0.366,1.051l-0.794-0.784
					c-0.565-0.558-1.166-1.152-1.774-1.752c-2.755-2.734-5.378-5.336-7.772-7.711c-0.297-0.301-0.585-0.603-0.836-0.567
					c-0.25,0.005-0.455,0.344-0.562,0.69c-0.196,0.736-0.37,1.516-0.547,2.235c-0.351,1.449-0.679,2.802-0.981,4.045
					c-0.602,2.417-1.095,4.398-1.456,5.849c-0.171,0.642-0.31,1.166-0.422,1.584c-0.102,0.361-0.164,0.548-0.182,0.544
					c-0.018-0.004,0.01-0.2,0.079-0.568c0.086-0.424,0.194-0.955,0.327-1.607c0.321-1.46,0.76-3.454,1.295-5.887
					c0.282-1.248,0.59-2.606,0.919-4.06c0.173-0.736,0.324-1.469,0.531-2.275c0.065-0.204,0.148-0.412,0.289-0.609
					c0.135-0.192,0.375-0.39,0.667-0.41c0.62-0.024,0.928,0.441,1.216,0.693c2.403,2.367,5.036,4.959,7.801,7.682
					c0.607,0.601,1.208,1.195,1.772,1.754l-0.428,0.267c-2.346-6.784-4.733-12.738-6.295-17.075
					c-0.794-2.165-1.408-3.917-1.805-5.134c-0.203-0.607-0.346-1.082-0.441-1.404C157.678,265.388,157.636,265.216,157.652,265.211z
					"/>
			</g>
			<g>
				<path style="fill:#263238;" d="M187.943,305.423c0.009,0,0.015,0.13,0.018,0.383c0,0.278,0,0.65,0,1.121
					c-0.012,1.015-0.028,2.462-0.049,4.311c-0.066,3.773-0.161,9.181-0.279,15.852c-0.286,13.409-0.68,31.885-1.116,52.292
					c-0.495,20.414-0.943,38.891-1.268,52.298c-0.187,6.67-0.338,12.076-0.444,15.848c-0.063,1.848-0.112,3.294-0.147,4.309
					c-0.022,0.471-0.039,0.842-0.051,1.12c-0.015,0.252-0.026,0.382-0.035,0.382c-0.009,0-0.015-0.13-0.018-0.382
					c0-0.278,0-0.649,0-1.121c0.012-1.015,0.028-2.461,0.049-4.31c0.066-3.772,0.161-9.18,0.279-15.85
					c0.286-13.409,0.68-31.888,1.116-52.303c0.495-20.407,0.943-38.883,1.268-52.292c0.187-6.669,0.338-12.076,0.444-15.848
					c0.063-1.848,0.113-3.294,0.147-4.309c0.022-0.471,0.039-0.842,0.051-1.12C187.923,305.552,187.934,305.422,187.943,305.423z"/>
			</g>
			<g>
				<path style="fill:#263238;" d="M239.942,380.651c0.026,0.142-7.112,1.555-15.94,3.157c-8.831,1.602-16.009,2.786-16.034,2.645
					c-0.026-0.141,7.11-1.555,15.941-3.157C232.737,381.693,239.916,380.509,239.942,380.651z"/>
			</g>
			<g>
				<path style="fill:#263238;" d="M261.624,420.406c0.064,0.129-5.599,3.091-12.648,6.615c-7.051,3.526-12.818,6.279-12.882,6.15
					c-0.064-0.129,5.598-3.09,12.649-6.616C255.792,423.031,261.56,420.277,261.624,420.406z"/>
			</g>
			<g>
				<path style="fill:#263238;" d="M76.878,451.564c0.008,0.035-0.33,0.147-0.951,0.32c-0.619,0.176-1.524,0.396-2.649,0.641
					c-2.249,0.491-5.388,1.035-8.886,1.384c-3.5,0.345-6.685,0.426-8.986,0.386c-1.151-0.019-2.081-0.058-2.723-0.109
					c-0.642-0.048-0.996-0.091-0.995-0.127c0.003-0.079,1.424-0.077,3.716-0.132c2.292-0.054,5.457-0.193,8.937-0.536
					c3.479-0.346,6.608-0.83,8.867-1.227C75.467,451.768,76.86,451.488,76.878,451.564z"/>
			</g>
			<g>
				<path style="fill:#263238;" d="M69.793,315.603c-0.107,0.096-2.432-2.324-5.191-5.405c-2.76-3.082-4.91-5.657-4.803-5.753
					c0.107-0.096,2.431,2.324,5.191,5.405C67.75,312.931,69.9,315.507,69.793,315.603z"/>
			</g>
		</g>
	</g>
</g>
</svg>
